<svg xmlns="http://www.w3.org/2000/svg" width="982" height="970" viewBox="0 0 982 970">
<g>
<path d="M 0.00 0.00 L 982.00 0.00 L 982.00 970.00 L 0.00 970.00 ZM 643.88 524.54 C645.13,525.80 653.69,523.72 659.08,520.86 C667.55,516.37 673.86,508.00 676.60,497.62 C678.32,491.09 678.59,350.92 676.89,342.83 C674.10,329.50 662.93,318.58 650.09,316.60 C642.78,315.48 588.87,315.83 583.23,317.04 C576.00,318.60 568.86,324.06 563.52,332.13 C558.22,340.16 558.18,340.87 558.68,419.69 C558.97,464.84 559.53,494.01 560.17,496.48 C562.83,506.76 569.98,515.37 579.84,520.18 C584.24,522.33 586.16,522.50 613.88,523.19 C630.04,523.60 643.54,524.21 643.88,524.54 ZM 803.00 527.73 C807.67,528.15 815.02,528.60 819.32,528.72 L 827.15 528.95 L 826.91 430.21 C826.74,356.74 826.97,330.92 827.84,329.30 C828.48,328.11 829.00,325.28 829.00,323.02 L 829.00 318.92 L 805.50 319.06 C803.80,319.07 802.21,319.07 800.73,319.08 C787.78,319.13 783.08,319.15 782.14,321.04 C781.61,322.12 782.29,323.80 783.37,326.43 C783.58,326.96 783.81,327.53 784.06,328.14 C786.02,333.12 786.11,335.30 786.09,376.43 C786.08,400.12 786.06,421.19 786.04,423.25 C786.02,425.31 785.62,427.00 785.15,427.00 C784.12,427.00 773.02,397.47 766.04,376.21 C763.29,367.81 760.56,360.04 759.98,358.96 C758.88,356.90 753.64,342.56 749.57,330.50 C748.28,326.65 746.64,322.25 745.94,320.73 L 744.66 317.96 L 721.45 318.10 C708.69,318.17 697.73,318.55 697.10,318.94 C696.28,319.44 696.54,320.97 698.02,324.31 C699.15,326.88 700.24,330.67 700.44,332.74 C700.64,334.81 700.93,375.20 701.09,422.50 L 701.37 508.50 L 698.76 514.50 C697.33,517.80 696.53,520.89 696.99,521.36 C697.45,521.84 705.63,522.63 715.16,523.12 C724.70,523.61 735.19,524.45 738.47,524.99 C747.15,526.42 747.75,525.44 744.02,515.98 L 741.07 508.50 L 741.03 462.13 C741.00,421.02 741.17,415.90 742.50,417.00 C743.33,417.68 744.00,418.97 744.00,419.85 C744.00,420.73 745.10,424.39 746.45,427.98 C750.03,437.52 758.36,460.06 765.49,479.50 C768.92,488.85 774.22,503.25 777.28,511.50 L 782.85 526.50 L 788.67 526.73 C791.88,526.86 798.33,527.31 803.00,527.73 ZM 295.22 521.42 C296.04,522.90 298.30,523.01 317.32,522.49 C341.39,521.83 347.00,521.33 347.00,519.81 C347.00,519.23 345.90,516.22 344.56,513.13 C342.22,507.72 342.11,506.45 341.74,480.70 C341.52,465.97 341.62,453.74 341.95,453.53 C343.42,452.63 351.66,452.17 352.88,452.92 C354.19,453.74 359.09,467.56 366.53,491.50 C370.03,502.73 370.23,504.04 369.64,512.25 L 369.02 521.00 L 377.76 520.92 C395.35,520.76 418.03,519.37 419.02,518.38 C419.70,517.70 418.58,514.47 415.57,508.43 C409.27,495.83 393.00,452.25 393.00,447.99 C393.00,447.01 393.72,445.94 394.60,445.60 C395.52,445.25 395.96,444.34 395.64,443.49 C395.21,442.38 395.80,442.00 397.95,442.00 C401.82,442.00 407.05,435.87 410.15,427.68 C412.47,421.58 412.50,421.00 412.50,382.50 L 412.50 343.50 L 409.38 336.91 C405.85,329.47 402.53,325.91 396.00,322.55 C387.20,318.03 382.47,317.68 341.00,318.57 C319.83,319.03 300.85,319.42 298.84,319.45 C294.97,319.50 292.90,320.64 294.53,321.80 C295.06,322.19 296.36,324.30 297.41,326.50 C299.22,330.30 299.32,333.71 299.42,395.50 C299.48,431.25 299.29,471.98 299.01,486.00 C298.54,509.36 298.32,511.85 296.40,515.64 C294.93,518.51 294.57,520.27 295.22,521.42 ZM 185.96 526.66 C194.71,529.25 195.38,529.27 224.64,528.01 C248.03,527.00 254.21,525.77 260.42,520.88 C263.91,518.14 268.80,510.89 271.37,504.63 C273.46,499.57 273.49,498.42 273.74,416.01 C273.97,343.13 274.20,331.91 275.58,327.77 C276.44,325.16 277.57,322.77 278.08,322.45 C278.58,322.14 279.00,321.23 279.00,320.44 C279.00,319.22 275.04,319.00 253.50,319.00 C239.48,319.00 228.00,319.24 228.00,319.54 C228.00,319.84 228.97,321.97 230.16,324.29 C233.40,330.59 233.95,346.89 233.42,419.89 C233.01,476.15 232.78,483.67 231.31,486.76 C229.17,491.27 224.96,493.00 216.17,493.00 C210.70,493.00 208.72,492.57 206.63,490.93 L 204.00 488.85 L 204.01 410.18 L 204.02 331.50 L 206.51 326.15 C207.88,323.21 209.00,320.40 209.00,319.90 C209.00,319.39 197.96,319.00 183.50,319.00 C169.48,319.00 158.01,319.34 158.01,319.75 C158.02,320.16 158.74,322.52 159.62,325.00 C161.02,328.96 161.23,339.73 161.42,414.50 C161.66,508.82 161.43,505.48 168.32,515.70 C172.12,521.34 175.88,523.68 185.96,526.66 ZM 49.30 534.96 C56.30,538.59 57.83,539.00 64.30,539.00 C74.96,538.99 102.69,537.13 109.00,535.99 C122.57,533.55 135.27,523.45 138.68,512.38 C140.28,507.21 140.50,502.57 140.50,474.00 L 140.50 441.50 L 137.65 436.00 C133.47,427.95 129.93,424.77 119.68,419.89 C114.63,417.48 102.48,411.54 92.67,406.68 C81.23,401.02 76.01,398.75 73.75,394.78 C71.85,391.45 72.04,386.94 72.40,378.25 C72.44,377.28 72.48,376.26 72.52,375.18 C72.95,364.26 73.53,359.09 74.45,358.15 C76.12,356.45 90.53,354.78 94.51,355.84 C98.84,356.98 100.09,360.55 100.73,373.56 L 101.30 385.00 L 114.40 384.99 C121.60,384.99 130.58,384.69 134.35,384.34 L 141.20 383.69 L 140.85 363.10 C140.51,342.97 140.44,342.37 137.74,336.88 C133.76,328.78 128.00,322.68 121.79,319.99 C116.84,317.84 114.68,317.65 88.00,317.01 C61.71,316.38 59.01,316.47 53.19,318.22 C42.45,321.45 34.36,330.73 31.56,343.02 C29.82,350.67 29.53,374.92 30.89,397.50 C31.53,408.01 32.11,411.35 33.95,414.92 C37.93,422.69 44.75,428.25 58.18,434.66 C64.90,437.87 76.26,443.42 83.41,447.00 C100.26,455.42 100.17,455.29 100.79,475.17 C101.21,488.87 101.10,490.05 99.15,492.79 C96.11,497.06 92.16,498.35 83.95,497.76 C73.59,497.02 73.23,496.50 72.83,481.50 C72.65,474.71 72.21,468.88 71.87,468.53 C71.29,467.95 34.00,469.80 31.35,470.54 C30.55,470.76 30.17,476.92 30.06,491.36 L 29.92 511.87 L 32.84 518.18 C36.85,526.83 40.18,530.23 49.30,534.96 ZM 940.00 535.96 L 940.72 536.04 C946.75,536.65 949.06,536.89 949.97,535.87 C950.56,535.20 950.55,533.99 950.59,531.99 C950.64,529.52 951.01,519.51 951.41,509.75 L 951.47 508.38 C951.94,496.97 952.11,492.84 950.61,492.09 C949.75,491.67 948.35,492.34 946.15,493.39 C946.00,493.46 945.85,493.54 945.69,493.61 C942.59,495.09 940.37,495.09 919.01,493.67 C906.20,492.82 895.32,491.72 894.84,491.24 C893.65,490.05 893.71,444.89 894.89,443.71 C896.55,442.05 927.92,444.43 932.24,446.54 C934.29,447.54 936.28,448.05 936.66,447.68 C937.22,447.11 937.24,402.85 936.68,402.36 C936.58,402.28 933.80,402.75 930.50,403.41 C926.73,404.17 918.83,404.46 909.25,404.20 L 894.00 403.78 L 893.90 385.39 C893.78,362.78 893.78,362.63 893.90,359.25 L 894.00 356.50 L 919.09 356.72 C938.41,356.90 944.85,357.28 947.03,358.37 C948.60,359.15 950.13,359.53 950.44,359.23 C950.75,358.92 951.00,349.48 951.00,338.25 L 951.00 317.83 L 899.05 318.19 C870.48,318.39 846.76,318.91 846.33,319.33 C845.91,319.76 846.80,322.33 848.33,325.04 L 851.10 329.97 L 851.04 420.78 C851.00,470.73 850.58,512.93 850.10,514.55 C849.62,516.17 848.29,519.84 847.14,522.71 C846.00,525.58 845.39,528.12 845.78,528.37 C846.18,528.61 850.78,529.11 856.00,529.48 C861.23,529.84 876.08,530.99 889.00,532.03 C901.92,533.07 917.00,534.20 922.50,534.56 C928.00,534.91 935.88,535.54 940.00,535.96 ZM 435.46 518.94 C436.20,520.13 471.55,520.31 484.00,519.18 C488.12,518.81 498.48,518.72 507.00,519.00 C515.53,519.28 527.11,519.34 532.75,519.14 L 543.00 518.77 L 543.00 499.89 C543.00,487.57 542.64,481.00 541.97,481.00 C541.40,481.00 539.32,481.67 537.35,482.50 C533.33,484.18 523.44,484.39 499.14,483.34 L 483.96 482.69 L 484.50 437.50 L 492.50 437.20 C499.74,436.93 514.45,438.11 522.71,439.63 L 525.92 440.22 L 526.21 419.04 L 526.50 397.86 L 520.50 398.68 C517.20,399.13 507.75,399.50 499.50,399.50 L 484.50 399.50 L 484.23 378.19 L 483.96 356.88 L 510.23 357.29 C524.68,357.51 537.40,357.87 538.50,358.10 C540.44,358.49 540.51,357.90 540.77,338.29 L 541.04 318.08 L 490.06 318.29 C443.35,318.48 438.93,318.64 437.35,320.22 C435.73,321.84 435.73,322.04 437.39,323.87 C441.64,328.58 441.74,330.56 441.93,418.20 C442.05,477.66 441.78,503.11 440.98,506.08 C440.36,508.39 438.72,511.98 437.33,514.08 C435.94,516.17 435.10,518.36 435.46,518.94 ZM 103.17 662.04 C102.96,662.64 115.85,663.00 137.72,663.00 L 172.61 663.00 L 196.92 637.42 L 221.23 611.84 L 218.31 608.67 C209.51,599.14 176.29,564.32 175.00,563.28 C173.17,561.79 104.00,561.44 104.00,562.92 C104.00,563.42 108.39,568.48 113.75,574.17 C131.54,593.02 147.00,610.89 147.00,612.59 C147.00,613.72 138.44,623.46 120.02,643.29 C110.94,653.07 103.35,661.51 103.17,662.04 ZM 631.71 485.39 C629.44,486.82 616.68,488.26 614.00,487.39 C609.53,485.94 604.06,482.35 603.58,480.56 C603.28,479.43 603.02,452.49 603.01,420.70 C603.00,358.85 603.01,358.67 607.94,356.03 C609.00,355.46 615.00,355.00 621.28,355.00 C630.97,355.00 632.93,355.27 634.31,356.79 C635.76,358.39 635.95,364.89 636.14,419.04 L 636.14 420.47 C636.33,475.30 636.35,481.65 633.22,484.35 C632.78,484.73 632.28,485.03 631.71,485.39 ZM 632.31 643.07 C637.59,645.57 639.71,646.00 646.71,646.00 C660.90,646.00 670.32,640.72 672.94,631.28 C673.54,629.12 673.99,617.12 673.99,603.38 C674.00,571.72 672.91,568.39 661.09,563.90 C649.69,559.58 633.10,561.44 625.97,567.84 C620.01,573.20 619.03,578.06 619.01,602.11 C618.99,632.08 620.79,637.62 632.31,643.07 ZM 337.99 645.13 C339.37,645.58 344.84,645.81 350.14,645.63 C358.42,645.36 360.43,644.94 364.29,642.68 C375.06,636.36 376.26,631.95 375.82,600.27 C375.47,575.05 375.30,574.30 368.47,567.67 C364.02,563.34 357.72,561.53 347.76,561.71 C335.55,561.92 325.65,567.47 322.96,575.61 C321.66,579.56 321.06,626.94 322.26,631.23 C323.79,636.67 330.60,642.70 337.99,645.13 ZM 690.00 563.00 L 690.00 645.08 L 698.25 644.79 L 706.50 644.50 L 707.00 625.33 C707.28,614.79 707.77,605.89 708.10,605.56 C708.44,605.23 710.74,609.13 713.23,614.23 C715.72,619.33 720.13,628.35 723.04,634.29 L 728.33 645.07 L 736.91 644.79 L 745.50 644.50 L 745.30 621.50 C745.19,608.85 745.08,590.51 745.05,580.75 L 745.00 563.00 L 726.73 563.00 L 727.46 582.50 C727.86,593.22 727.81,602.00 727.34,602.00 C726.88,601.99 722.09,593.22 716.71,582.50 L 706.91 563.00 ZM 470.33 645.99 C475.49,646.74 477.98,646.66 485.47,645.46 C492.90,644.28 498.84,639.65 502.12,632.50 C503.78,628.88 503.96,625.37 503.98,595.75 L 504.00 563.00 L 485.00 563.00 L 485.00 594.28 C485.00,629.92 484.98,630.00 477.90,630.00 C473.29,630.00 469.02,626.56 468.97,622.80 C468.95,621.53 468.94,607.56 468.95,591.75 L 468.96 563.00 L 449.93 563.00 L 450.21 597.42 L 450.50 631.83 L 453.54 636.17 C457.21,641.39 463.34,644.97 470.33,645.99 ZM 266.72 643.58 C277.91,648.18 295.38,646.28 302.36,639.70 C306.79,635.52 308.15,630.34 307.62,619.62 C307.04,607.63 305.99,606.41 289.51,598.49 C282.22,594.98 275.52,591.38 274.63,590.49 C272.47,588.33 272.49,581.22 274.65,578.83 C276.70,576.57 285.15,576.27 286.91,578.39 C287.55,579.16 288.40,581.75 288.81,584.14 L 289.56 588.50 L 306.50 588.50 L 306.37 581.50 C306.19,571.12 304.30,567.48 297.47,564.36 C292.26,561.97 291.05,561.82 280.18,562.19 C267.28,562.62 263.14,564.03 257.56,569.91 C254.84,572.77 254.58,573.70 254.19,582.00 C253.91,587.84 254.19,592.05 255.00,594.00 C256.95,598.70 262.40,602.79 274.70,608.74 C280.94,611.77 286.94,615.37 288.02,616.76 C292.84,622.89 288.81,630.00 280.52,630.00 C275.01,630.00 272.72,627.55 272.60,621.50 L 272.50 617.00 L 262.88 617.00 L 253.27 617.00 L 253.77 624.25 C254.26,631.45 256.42,637.44 259.40,639.92 C260.25,640.62 263.55,642.27 266.72,643.58 ZM 778.00 645.04 C790.16,647.34 803.24,644.70 808.68,638.85 C813.74,633.41 815.57,619.33 812.20,611.72 C809.88,606.47 808.02,605.10 794.00,598.38 C780.41,591.87 778.00,589.84 778.00,584.95 C778.00,579.53 780.66,577.00 786.38,577.00 C791.60,577.00 793.17,578.53 793.94,584.34 L 794.50 588.50 L 811.50 588.50 L 811.50 580.82 C811.50,571.46 809.90,568.77 801.95,564.73 C796.82,562.12 795.85,561.97 785.50,562.26 C771.70,562.65 765.96,565.05 762.31,571.95 C759.12,577.98 759.00,590.84 762.08,595.90 C765.00,600.69 766.85,602.00 781.25,609.50 C794.78,616.55 796.00,617.86 794.53,623.75 C793.41,628.22 791.14,630.00 786.53,630.00 C780.70,630.00 778.00,627.30 778.00,621.46 L 778.00 617.00 L 760.00 617.00 L 760.00 624.04 C760.00,636.98 764.77,642.54 778.00,645.04 ZM 533.92 638.25 L 533.89 645.01 L 543.20 644.75 L 552.50 644.50 L 552.76 612.29 L 553.03 580.08 L 561.76 579.79 L 570.50 579.50 L 570.50 563.50 L 516.92 562.97 L 517.21 571.23 C517.44,577.73 517.82,579.52 519.00,579.60 C519.83,579.65 523.53,579.76 527.22,579.85 L 533.95 580.00 L 533.94 605.75 C533.94,619.91 533.93,634.54 533.92,638.25 ZM 392.69 644.35 C393.06,644.73 403.08,644.92 414.94,644.77 L 436.50 644.50 L 436.79 636.75 L 437.08 629.00 L 425.24 629.00 C417.36,629.00 413.00,628.60 412.20,627.80 C411.32,626.92 411.00,618.20 411.00,594.80 L 411.00 563.00 L 392.00 563.00 L 392.00 603.33 C392.00,625.52 392.31,643.98 392.69,644.35 ZM 367.68 411.40 C365.29,413.18 363.15,413.55 353.68,413.83 C347.53,414.01 342.16,413.82 341.75,413.41 C341.34,413.00 341.00,399.69 341.00,383.83 L 341.00 355.00 L 352.10 355.00 C359.89,355.00 364.14,355.45 366.36,356.50 C372.11,359.23 372.45,360.60 372.82,382.00 C373.18,403.69 372.45,407.86 367.68,411.40 ZM 584.66 635.29 L 585.31 645.07 L 594.40 644.79 L 603.50 644.50 L 604.02 563.00 L 585.27 563.00 L 584.64 567.64 C583.81,573.69 583.82,622.67 584.66,635.29 ZM 652.93 627.37 C650.35,630.64 644.45,631.00 640.86,628.09 C638.54,626.21 638.49,625.82 638.16,605.71 C637.73,579.63 638.71,577.18 649.09,578.18 C654.51,578.70 654.97,580.72 654.99,604.12 C655.00,623.47 654.87,624.89 652.93,627.37 ZM 354.14 628.09 C351.60,630.15 346.56,630.56 343.78,628.94 C340.92,627.27 340.14,621.38 340.18,602.00 C340.24,581.80 340.95,578.55 345.59,577.39 C349.35,576.45 354.29,578.22 355.75,581.03 C356.70,582.86 356.96,589.04 356.76,604.84 C356.50,625.91 356.47,626.20 354.14,628.09 ZM 963.00 352.50 C963.00,353.33 963.45,354.00 964.00,354.00 C964.55,354.00 965.00,353.33 965.00,352.50 C965.00,351.67 964.55,351.00 964.00,351.00 C963.45,351.00 963.00,351.67 963.00,352.50 Z" fill="rgb(16,14,15)"/>
<path d="M 858.98 457.58 C859.54,458.14 859.56,459.10 859.01,459.98 C858.24,461.22 858.00,461.18 857.43,459.68 C856.63,457.59 857.63,456.23 858.98,457.58 ZM 318.00 467.94 C318.00,469.20 316.44,470.11 315.64,469.31 C314.51,468.18 314.95,467.00 316.50,467.00 C317.33,467.00 318.00,467.42 318.00,467.94 ZM 102.05 352.50 C102.08,353.05 101.36,353.66 100.44,353.85 C99.39,354.06 98.94,353.69 99.22,352.85 C99.74,351.29 101.97,351.02 102.05,352.50 ZM 963.00 352.50 C963.00,351.67 963.45,351.00 964.00,351.00 C964.55,351.00 965.00,351.67 965.00,352.50 C965.00,353.33 964.55,354.00 964.00,354.00 C963.45,354.00 963.00,353.33 963.00,352.50 Z" fill="rgb(72,71,69)"/>
<path d="M 893.87 360.02 C893.80,362.21 893.79,363.79 893.84,374.44 C893.70,369.93 893.46,367.00 893.20,367.00 C892.76,367.00 891.97,367.41 891.45,367.92 C890.87,368.48 889.93,368.21 889.03,367.23 C887.73,365.80 887.75,365.69 889.21,366.25 C890.11,366.60 891.35,366.28 891.96,365.55 C892.82,364.51 892.67,364.24 891.29,364.36 C890.12,364.45 889.50,363.81 889.50,362.50 C889.50,361.00 890.06,360.58 891.75,360.81 C893.03,360.99 893.64,360.82 893.87,360.02 ZM 663.24 426.51 C662.65,429.63 661.94,430.10 659.72,428.86 C658.77,428.33 657.54,428.17 656.99,428.50 C656.45,428.84 656.00,428.67 656.00,428.13 C656.00,427.21 661.45,424.00 663.01,424.00 C663.40,424.00 663.51,425.13 663.24,426.51 ZM 741.03 462.13 L 741.07 508.50 L 741.03 468.18 C741.00,428.37 740.98,427.87 739.01,428.50 C737.48,428.98 737.15,428.77 737.61,427.57 C737.94,426.70 738.84,426.00 739.61,426.00 C740.62,426.00 741.00,424.59 741.00,420.88 C741.00,416.44 741.20,415.92 742.50,417.00 C741.17,415.90 741.00,421.02 741.03,462.13 ZM 654.42 475.45 C654.07,476.85 653.10,478.00 652.27,478.00 C651.04,478.00 650.99,477.72 651.99,476.51 C652.99,475.31 652.92,474.91 651.61,474.40 C649.41,473.56 649.59,472.34 652.00,471.71 C654.51,471.05 655.24,472.19 654.42,475.45 ZM 295.22 521.42 C296.05,522.85 298.66,522.94 319.30,522.37 C332.06,522.02 343.04,521.31 343.69,520.79 C345.62,519.27 345.72,515.74 343.92,512.00 C343.46,511.04 343.12,509.85 342.85,507.89 C343.22,509.91 343.76,511.28 344.56,513.13 C345.90,516.22 347.00,519.23 347.00,519.81 C347.00,521.33 341.39,521.83 317.32,522.49 C298.30,523.01 296.04,522.90 295.22,521.42 ZM 496.58 357.07 L 509.48 357.22 C529.38,357.44 535.00,357.22 535.00,356.25 C535.00,354.20 536.72,354.83 537.32,357.11 C537.41,357.45 537.55,357.76 537.71,358.02 C534.54,357.79 523.07,357.48 510.23,357.29 ZM 850.90 463.92 C850.97,452.43 851.01,439.61 851.03,426.13 C851.13,432.17 851.47,435.83 851.93,435.54 C852.44,435.23 853.13,435.40 853.45,435.92 C853.78,436.45 853.38,437.25 852.57,437.70 C851.50,438.30 851.15,442.67 850.90,463.92 ZM 673.00 355.00 C673.00,355.55 671.42,356.00 669.50,356.00 C666.95,356.00 666.00,355.56 666.00,354.39 C666.00,353.34 666.54,352.99 667.58,353.39 C668.45,353.73 670.03,354.00 671.08,354.00 C672.14,354.00 673.00,354.45 673.00,355.00 ZM 897.00 337.00 C894.42,339.58 893.79,339.52 894.18,336.75 C894.39,335.30 895.30,334.39 896.75,334.18 C899.52,333.79 899.58,334.42 897.00,337.00 ZM 512.55 498.91 C511.68,500.33 510.00,500.31 510.00,498.89 C510.00,498.28 509.33,498.05 508.50,498.36 C507.67,498.68 507.00,498.53 507.00,498.04 C507.00,496.64 511.08,495.68 512.21,496.81 C512.77,497.37 512.92,498.31 512.55,498.91 ZM 851.04 413.96 L 851.08 349.98 L 851.08 368.47 C851.08,400.83 851.31,407.00 852.48,407.00 C853.25,407.00 854.20,407.52 854.60,408.16 C855.09,408.95 854.63,409.14 853.16,408.75 C851.58,408.34 851.15,408.31 851.04,413.96 ZM 660.31 494.62 C659.60,496.49 658.00,496.37 658.00,494.44 C658.00,493.58 657.55,493.16 657.00,493.50 C656.45,493.84 656.00,493.69 656.00,493.17 C656.00,491.70 658.63,491.03 659.80,492.20 C660.37,492.77 660.61,493.86 660.31,494.62 ZM 558.80 435.73 C558.76,430.64 558.72,425.29 558.68,419.69 C558.64,413.01 558.60,406.89 558.57,401.28 C558.78,411.04 559.17,418.00 559.75,418.00 C560.44,418.00 561.00,418.45 561.00,419.00 C561.00,419.55 560.44,420.00 559.75,420.00 C559.08,420.00 558.79,423.75 558.80,435.73 ZM 523.63 579.76 C525.03,579.66 525.90,579.20 526.61,578.29 C527.93,576.59 528.07,576.59 529.36,578.25 C530.00,579.08 531.08,579.77 531.93,579.95 L 527.22 579.85 C525.99,579.82 524.75,579.79 523.63,579.76 ZM 951.68 503.02 C951.63,504.60 951.55,506.38 951.47,508.38 L 951.41 509.75 C951.15,516.14 950.90,522.63 950.75,527.04 C950.71,523.99 950.36,522.21 949.72,521.79 C948.81,521.20 948.79,520.81 949.66,520.25 C950.38,519.78 951.09,514.30 951.54,505.75 C951.59,504.78 951.64,503.87 951.68,503.02 ZM 661.00 501.50 C661.00,503.77 658.31,503.30 657.69,500.92 C657.28,499.36 657.52,498.99 658.65,499.42 C659.48,499.74 660.35,500.00 660.58,500.00 C660.81,500.00 661.00,500.67 661.00,501.50 ZM 709.00 340.00 C709.00,341.41 707.72,341.18 706.25,339.50 C704.75,337.80 704.62,336.00 706.00,336.00 C706.55,336.00 707.00,336.67 707.00,337.50 C707.00,338.33 707.45,339.00 708.00,339.00 C708.55,339.00 709.00,339.45 709.00,340.00 ZM 759.98 358.96 C760.18,359.33 760.64,360.51 761.26,362.23 C759.53,357.71 758.72,357.00 757.46,357.00 C755.82,357.00 755.49,355.43 756.95,354.53 C757.42,354.24 756.84,351.41 755.56,347.59 C757.66,353.37 759.40,357.87 759.98,358.96 ZM 673.00 474.06 C673.00,475.13 672.60,476.00 672.12,476.00 C671.09,476.00 669.96,472.37 670.75,471.59 C671.70,470.64 673.00,472.07 673.00,474.06 ZM 805.50 319.06 L 829.00 318.92 L 829.00 319.00 L 820.36 319.00 C813.30,319.00 811.48,319.32 810.39,320.75 C809.13,322.41 809.06,322.41 809.03,320.70 C809.01,319.60 808.52,319.17 804.57,319.06 C804.88,319.06 805.19,319.06 805.50,319.06 ZM 136.36 361.50 C135.75,363.09 134.75,363.41 133.69,362.36 C132.77,361.43 133.88,360.00 135.53,360.00 C136.37,360.00 136.71,360.60 136.36,361.50 ZM 660.81 369.48 C661.13,369.80 660.40,371.04 659.19,372.25 C657.99,373.46 657.00,373.93 657.00,373.29 C657.00,371.80 660.07,368.73 660.81,369.48 ZM 784.00 509.00 C784.00,509.55 783.10,510.00 782.00,510.00 C780.90,510.00 780.00,509.55 780.00,509.00 C780.00,508.45 780.90,508.00 782.00,508.00 C783.10,508.00 784.00,508.45 784.00,509.00 ZM 863.60 519.40 C864.57,521.94 863.58,523.16 862.27,521.06 C861.49,519.81 861.40,518.87 862.03,518.48 C862.57,518.15 863.28,518.56 863.60,519.40 ZM 507.82 409.67 C507.65,410.58 506.97,411.51 506.33,411.72 C505.58,411.97 505.35,411.37 505.70,410.06 C506.33,407.61 508.29,407.25 507.82,409.67 ZM 876.00 376.06 C876.00,376.58 875.58,377.00 875.06,377.00 C873.88,377.00 872.62,375.05 873.33,374.33 C874.05,373.62 876.00,374.88 876.00,376.06 ZM 377.00 488.06 C377.00,488.58 376.58,489.00 376.06,489.00 C374.88,489.00 373.62,487.05 374.33,486.33 C375.05,485.62 377.00,486.88 377.00,488.06 ZM 875.36 380.50 C875.05,381.33 874.38,382.00 873.89,382.00 C873.40,382.00 873.00,381.33 873.00,380.50 C873.00,379.67 873.66,379.00 874.47,379.00 C875.36,379.00 875.71,379.59 875.36,380.50 ZM 845.86 526.60 C846.11,525.57 846.56,524.18 847.14,522.71 C848.29,519.84 849.62,516.17 850.10,514.55 C850.30,513.89 850.48,506.41 850.64,494.37 L 850.47 515.50 L 847.83 521.50 C846.96,523.48 846.25,525.35 845.86,526.60 ZM 185.00 624.00 C185.00,624.55 184.35,625.00 183.56,625.00 C182.77,625.00 181.84,624.55 181.50,624.00 C181.16,623.45 181.81,623.00 182.94,623.00 C184.07,623.00 185.00,623.45 185.00,624.00 ZM 875.50 471.00 C875.16,471.55 874.23,472.00 873.44,472.00 C872.65,472.00 872.00,471.55 872.00,471.00 C872.00,470.45 872.93,470.00 874.06,470.00 C875.19,470.00 875.84,470.45 875.50,471.00 ZM 459.17 327.77 C460.48,329.08 458.80,330.11 457.10,329.06 C456.10,328.44 456.07,328.07 456.98,327.51 C457.64,327.11 458.62,327.22 459.17,327.77 ZM 138.00 452.11 C138.00,453.16 136.62,453.29 135.67,452.33 C134.45,451.12 134.98,450.05 136.50,450.64 C137.32,450.95 138.00,451.62 138.00,452.11 ZM 85.36 407.50 C85.68,408.33 85.58,409.00 85.14,409.00 C84.09,409.00 83.00,407.89 83.00,406.83 C83.00,405.42 84.75,405.91 85.36,407.50 ZM 49.30 534.96 C44.42,532.43 41.20,530.28 38.65,527.51 C39.39,528.22 40.03,528.54 40.46,528.38 C41.16,528.11 41.95,528.71 42.21,529.71 C42.48,530.73 45.89,533.18 49.95,535.27 C56.31,538.54 58.04,539.00 64.26,539.00 C57.83,539.00 56.28,538.58 49.30,534.96 ZM 312.00 414.00 C312.00,414.55 310.99,414.99 309.75,414.98 C307.93,414.97 307.79,414.78 309.00,414.00 C310.94,412.75 312.00,412.75 312.00,414.00 ZM 646.81 444.06 C646.57,444.78 645.78,445.57 645.06,445.81 C644.31,446.06 643.94,445.69 644.19,444.94 C644.43,444.22 645.22,443.43 645.94,443.19 C646.69,442.94 647.06,443.31 646.81,444.06 ZM 473.00 405.80 C473.00,408.21 472.48,408.59 471.45,406.91 C471.08,406.31 471.28,405.32 471.89,404.71 C472.70,403.90 473.00,404.18 473.00,405.80 ZM 739.00 329.00 C739.00,329.55 738.33,330.00 737.50,330.00 C736.67,330.00 736.00,329.55 736.00,329.00 C736.00,328.45 736.67,328.00 737.50,328.00 C738.33,328.00 739.00,328.45 739.00,329.00 ZM 262.00 395.50 C262.00,396.33 261.55,397.00 261.00,397.00 C260.45,397.00 260.00,396.33 260.00,395.50 C260.00,394.67 260.45,394.00 261.00,394.00 C261.55,394.00 262.00,394.67 262.00,395.50 ZM 568.00 430.50 C568.00,431.33 567.55,432.00 567.00,432.00 C566.45,432.00 566.00,431.33 566.00,430.50 C566.00,429.67 566.45,429.00 567.00,429.00 C567.55,429.00 568.00,429.67 568.00,430.50 ZM 878.00 410.00 C878.00,410.55 877.33,411.00 876.50,411.00 C875.67,411.00 875.00,410.55 875.00,410.00 C875.00,409.45 875.67,409.00 876.50,409.00 C877.33,409.00 878.00,409.45 878.00,410.00 ZM 859.00 467.00 C859.00,467.55 858.33,468.00 857.50,468.00 C856.67,468.00 856.00,467.55 856.00,467.00 C856.00,466.45 856.67,466.00 857.50,466.00 C858.33,466.00 859.00,466.45 859.00,467.00 ZM 195.00 366.00 C195.00,366.55 194.32,367.00 193.50,367.00 C192.68,367.00 192.00,366.55 192.00,366.00 C192.00,365.45 192.68,365.00 193.50,365.00 C194.32,365.00 195.00,365.45 195.00,366.00 ZM 109.00 467.00 C109.00,467.55 108.32,468.00 107.50,468.00 C106.68,468.00 106.00,467.55 106.00,467.00 C106.00,466.45 106.68,466.00 107.50,466.00 C108.32,466.00 109.00,466.45 109.00,467.00 ZM 62.81 414.92 C63.01,415.52 62.42,416.00 61.50,416.00 C60.58,416.00 59.99,415.52 60.19,414.92 C60.39,414.33 60.98,413.85 61.50,413.85 C62.02,413.85 62.61,414.33 62.81,414.92 ZM 78.81 330.92 C79.01,331.52 78.42,332.00 77.50,332.00 C76.58,332.00 75.99,331.52 76.19,330.92 C76.39,330.33 76.98,329.85 77.50,329.85 C78.02,329.85 78.61,330.33 78.81,330.92 ZM 855.20 339.80 C855.84,340.44 856.16,341.17 855.90,341.43 C855.65,341.68 854.79,341.49 854.00,341.00 C853.21,340.51 852.89,339.78 853.30,339.37 C853.70,338.97 854.56,339.16 855.20,339.80 ZM 334.50 380.00 C334.16,380.55 333.46,381.00 332.94,381.00 C332.42,381.00 332.00,380.55 332.00,380.00 C332.00,379.45 332.70,379.00 333.56,379.00 C334.42,379.00 334.84,379.45 334.50,380.00 ZM 331.50 480.00 C331.16,480.55 330.46,481.00 329.94,481.00 C329.42,481.00 329.00,480.55 329.00,480.00 C329.00,479.45 329.70,479.00 330.56,479.00 C331.42,479.00 331.84,479.45 331.50,480.00 ZM 576.00 373.94 C576.00,374.46 575.55,375.16 575.00,375.50 C574.45,375.84 574.00,375.42 574.00,374.56 C574.00,373.70 574.45,373.00 575.00,373.00 C575.55,373.00 576.00,373.42 576.00,373.94 ZM 900.00 504.94 C900.00,505.46 899.55,506.16 899.00,506.50 C898.45,506.84 898.00,506.42 898.00,505.56 C898.00,504.70 898.45,504.00 899.00,504.00 C899.55,504.00 900.00,504.42 900.00,504.94 ZM 465.00 330.44 C465.00,331.30 464.55,332.00 464.00,332.00 C463.45,332.00 463.00,331.58 463.00,331.06 C463.00,330.54 463.45,329.84 464.00,329.50 C464.55,329.16 465.00,329.58 465.00,330.44 ZM 514.00 327.06 C514.00,327.58 513.55,328.00 513.00,328.00 C512.45,328.00 512.00,327.30 512.00,326.44 C512.00,325.58 512.45,325.16 513.00,325.50 C513.55,325.84 514.00,326.54 514.00,327.06 ZM 60.50 418.00 C60.16,418.55 59.46,419.00 58.94,419.00 C58.42,419.00 58.00,418.55 58.00,418.00 C58.00,417.45 58.70,417.00 59.56,417.00 C60.42,417.00 60.84,417.45 60.50,418.00 ZM 542.50 604.00 C542.16,604.55 541.46,605.00 540.94,605.00 C540.42,605.00 540.00,604.55 540.00,604.00 C540.00,603.45 540.70,603.00 541.56,603.00 C542.42,603.00 542.84,603.45 542.50,604.00 ZM 60.50 352.00 C60.16,352.55 59.46,353.00 58.94,353.00 C58.42,353.00 58.00,352.55 58.00,352.00 C58.00,351.45 58.70,351.00 59.56,351.00 C60.42,351.00 60.84,351.45 60.50,352.00 ZM 747.00 381.00 C747.00,381.55 746.30,382.00 745.44,382.00 C744.58,382.00 744.16,381.55 744.50,381.00 C744.84,380.45 745.54,380.00 746.06,380.00 C746.58,380.00 747.00,380.45 747.00,381.00 ZM 645.00 467.00 C645.00,467.55 644.30,468.00 643.44,468.00 C642.58,468.00 642.16,467.55 642.50,467.00 C642.84,466.45 643.54,466.00 644.06,466.00 C644.58,466.00 645.00,466.45 645.00,467.00 ZM 870.60 473.27 C870.94,473.60 871.02,474.44 870.79,475.14 C870.45,476.15 870.21,476.15 869.58,475.13 C868.75,473.78 869.59,472.25 870.60,473.27 ZM 31.47 515.22 L 29.92 511.87 L 30.06 491.36 C29.95,507.99 30.07,511.45 31.47,515.22 ZM 78.00 533.00 C78.00,533.55 77.55,534.00 77.00,534.00 C76.45,534.00 76.00,533.55 76.00,533.00 C76.00,532.45 76.45,532.00 77.00,532.00 C77.55,532.00 78.00,532.45 78.00,533.00 ZM 149.00 576.00 C149.00,576.55 148.55,577.00 148.00,577.00 C147.45,577.00 147.00,576.55 147.00,576.00 C147.00,575.45 147.45,575.00 148.00,575.00 C148.55,575.00 149.00,575.45 149.00,576.00 ZM 159.00 620.00 C159.00,620.55 158.55,621.00 158.00,621.00 C157.45,621.00 157.00,620.55 157.00,620.00 C157.00,619.45 157.45,619.00 158.00,619.00 C158.55,619.00 159.00,619.45 159.00,620.00 ZM 179.00 622.00 C179.00,622.55 178.55,623.00 178.00,623.00 C177.45,623.00 177.00,622.55 177.00,622.00 C177.00,621.45 177.45,621.00 178.00,621.00 C178.55,621.00 179.00,621.45 179.00,622.00 ZM 126.00 368.00 C126.00,368.55 125.55,369.00 125.00,369.00 C124.45,369.00 124.00,368.55 124.00,368.00 C124.00,367.45 124.45,367.00 125.00,367.00 C125.55,367.00 126.00,367.45 126.00,368.00 ZM 181.00 395.00 C181.00,395.55 180.55,396.00 180.00,396.00 C179.45,396.00 179.00,395.55 179.00,395.00 C179.00,394.45 179.45,394.00 180.00,394.00 C180.55,394.00 181.00,394.45 181.00,395.00 ZM 237.00 410.00 C237.00,410.55 236.55,411.00 236.00,411.00 C235.45,411.00 235.00,410.55 235.00,410.00 C235.00,409.45 235.45,409.00 236.00,409.00 C236.55,409.00 237.00,409.45 237.00,410.00 ZM 111.00 420.00 C111.00,420.55 110.55,421.00 110.00,421.00 C109.45,421.00 109.00,420.55 109.00,420.00 C109.00,419.45 109.45,419.00 110.00,419.00 C110.55,419.00 111.00,419.45 111.00,420.00 ZM 167.00 420.00 C167.00,420.55 166.55,421.00 166.00,421.00 C165.45,421.00 165.00,420.55 165.00,420.00 C165.00,419.45 165.45,419.00 166.00,419.00 C166.55,419.00 167.00,419.45 167.00,420.00 ZM 188.00 436.00 C188.00,436.55 187.55,437.00 187.00,437.00 C186.45,437.00 186.00,436.55 186.00,436.00 C186.00,435.45 186.45,435.00 187.00,435.00 C187.55,435.00 188.00,435.45 188.00,436.00 ZM 138.00 460.00 C138.00,460.55 137.55,461.00 137.00,461.00 C136.45,461.00 136.00,460.55 136.00,460.00 C136.00,459.45 136.45,459.00 137.00,459.00 C137.55,459.00 138.00,459.45 138.00,460.00 ZM 63.00 347.00 C63.00,347.55 62.55,348.00 62.00,348.00 C61.45,348.00 61.00,347.55 61.00,347.00 C61.00,346.45 61.45,346.00 62.00,346.00 C62.55,346.00 63.00,346.45 63.00,347.00 ZM 51.00 521.00 C51.00,521.55 50.55,522.00 50.00,522.00 C49.45,522.00 49.00,521.55 49.00,521.00 C49.00,520.45 49.45,520.00 50.00,520.00 C50.55,520.00 51.00,520.45 51.00,521.00 ZM 809.00 524.00 C809.00,524.55 808.55,525.00 808.00,525.00 C807.45,525.00 807.00,524.55 807.00,524.00 C807.00,523.45 807.45,523.00 808.00,523.00 C808.55,523.00 809.00,523.45 809.00,524.00 ZM 887.00 525.00 C887.00,525.55 886.55,526.00 886.00,526.00 C885.45,526.00 885.00,525.55 885.00,525.00 C885.00,524.45 885.45,524.00 886.00,524.00 C886.55,524.00 887.00,524.45 887.00,525.00 ZM 298.00 567.00 C298.00,567.55 297.55,568.00 297.00,568.00 C296.45,568.00 296.00,567.55 296.00,567.00 C296.00,566.45 296.45,566.00 297.00,566.00 C297.55,566.00 298.00,566.45 298.00,567.00 ZM 638.00 569.00 C638.00,569.55 637.55,570.00 637.00,570.00 C636.45,570.00 636.00,569.55 636.00,569.00 C636.00,568.45 636.45,568.00 637.00,568.00 C637.55,568.00 638.00,568.45 638.00,569.00 ZM 636.00 587.00 C636.00,587.55 635.55,588.00 635.00,588.00 C634.45,588.00 634.00,587.55 634.00,587.00 C634.00,586.45 634.45,586.00 635.00,586.00 C635.55,586.00 636.00,586.45 636.00,587.00 ZM 304.00 619.00 C304.00,619.55 303.55,620.00 303.00,620.00 C302.45,620.00 302.00,619.55 302.00,619.00 C302.00,618.45 302.45,618.00 303.00,618.00 C303.55,618.00 304.00,618.45 304.00,619.00 ZM 258.00 630.00 C258.00,630.55 257.55,631.00 257.00,631.00 C256.45,631.00 256.00,630.55 256.00,630.00 C256.00,629.45 256.45,629.00 257.00,629.00 C257.55,629.00 258.00,629.45 258.00,630.00 ZM 487.00 514.00 C487.00,514.55 486.55,515.00 486.00,515.00 C485.45,515.00 485.00,514.55 485.00,514.00 C485.00,513.45 485.45,513.00 486.00,513.00 C486.55,513.00 487.00,513.45 487.00,514.00 ZM 818.00 327.00 C818.00,327.55 817.55,328.00 817.00,328.00 C816.45,328.00 816.00,327.55 816.00,327.00 C816.00,326.45 816.45,326.00 817.00,326.00 C817.55,326.00 818.00,326.45 818.00,327.00 ZM 807.00 329.00 C807.00,329.55 806.55,330.00 806.00,330.00 C805.45,330.00 805.00,329.55 805.00,329.00 C805.00,328.45 805.45,328.00 806.00,328.00 C806.55,328.00 807.00,328.45 807.00,329.00 ZM 472.00 335.00 C472.00,335.55 471.55,336.00 471.00,336.00 C470.45,336.00 470.00,335.55 470.00,335.00 C470.00,334.45 470.45,334.00 471.00,334.00 C471.55,334.00 472.00,334.45 472.00,335.00 ZM 526.00 336.00 C526.00,336.55 525.55,337.00 525.00,337.00 C524.45,337.00 524.00,336.55 524.00,336.00 C524.00,335.45 524.45,335.00 525.00,335.00 C525.55,335.00 526.00,335.45 526.00,336.00 ZM 498.00 341.00 C498.00,341.55 497.55,342.00 497.00,342.00 C496.45,342.00 496.00,341.55 496.00,341.00 C496.00,340.45 496.45,340.00 497.00,340.00 C497.55,340.00 498.00,340.45 498.00,341.00 ZM 814.00 348.00 C814.00,348.55 813.55,349.00 813.00,349.00 C812.45,349.00 812.00,348.55 812.00,348.00 C812.00,347.45 812.45,347.00 813.00,347.00 C813.55,347.00 814.00,347.45 814.00,348.00 ZM 472.00 368.00 C472.00,368.55 471.55,369.00 471.00,369.00 C470.45,369.00 470.00,368.55 470.00,368.00 C470.00,367.45 470.45,367.00 471.00,367.00 C471.55,367.00 472.00,367.45 472.00,368.00 ZM 644.00 389.00 C644.00,389.55 643.55,390.00 643.00,390.00 C642.45,390.00 642.00,389.55 642.00,389.00 C642.00,388.45 642.45,388.00 643.00,388.00 C643.55,388.00 644.00,388.45 644.00,389.00 ZM 577.00 392.00 C577.00,392.55 576.55,393.00 576.00,393.00 C575.45,393.00 575.00,392.55 575.00,392.00 C575.00,391.45 575.45,391.00 576.00,391.00 C576.55,391.00 577.00,391.45 577.00,392.00 ZM 734.00 405.00 C734.00,405.55 733.55,406.00 733.00,406.00 C732.45,406.00 732.00,405.55 732.00,405.00 C732.00,404.45 732.45,404.00 733.00,404.00 C733.55,404.00 734.00,404.45 734.00,405.00 ZM 922.00 412.00 C922.00,412.55 921.55,413.00 921.00,413.00 C920.45,413.00 920.00,412.55 920.00,412.00 C920.00,411.45 920.45,411.00 921.00,411.00 C921.55,411.00 922.00,411.45 922.00,412.00 ZM 571.00 419.00 C571.00,419.55 570.55,420.00 570.00,420.00 C569.45,420.00 569.00,419.55 569.00,419.00 C569.00,418.45 569.45,418.00 570.00,418.00 C570.55,418.00 571.00,418.45 571.00,419.00 ZM 800.00 422.00 C800.00,422.55 799.55,423.00 799.00,423.00 C798.45,423.00 798.00,422.55 798.00,422.00 C798.00,421.45 798.45,421.00 799.00,421.00 C799.55,421.00 800.00,421.45 800.00,422.00 ZM 794.00 423.00 C794.00,423.55 793.55,424.00 793.00,424.00 C792.45,424.00 792.00,423.55 792.00,423.00 C792.00,422.45 792.45,422.00 793.00,422.00 C793.55,422.00 794.00,422.45 794.00,423.00 ZM 881.00 428.00 C881.00,428.55 880.55,429.00 880.00,429.00 C879.45,429.00 879.00,428.55 879.00,428.00 C879.00,427.45 879.45,427.00 880.00,427.00 C880.55,427.00 881.00,427.45 881.00,428.00 ZM 464.00 438.00 C464.00,438.55 463.55,439.00 463.00,439.00 C462.45,439.00 462.00,438.55 462.00,438.00 C462.00,437.45 462.45,437.00 463.00,437.00 C463.55,437.00 464.00,437.45 464.00,438.00 ZM 892.00 440.00 C892.00,440.55 891.55,441.00 891.00,441.00 C890.45,441.00 890.00,440.55 890.00,440.00 C890.00,439.45 890.45,439.00 891.00,439.00 C891.55,439.00 892.00,439.45 892.00,440.00 ZM 825.00 456.00 C825.00,456.55 824.55,457.00 824.00,457.00 C823.45,457.00 823.00,456.55 823.00,456.00 C823.00,455.45 823.45,455.00 824.00,455.00 C824.55,455.00 825.00,455.45 825.00,456.00 ZM 816.00 463.00 C816.00,463.55 815.55,464.00 815.00,464.00 C814.45,464.00 814.00,463.55 814.00,463.00 C814.00,462.45 814.45,462.00 815.00,462.00 C815.55,462.00 816.00,462.45 816.00,463.00 ZM 861.00 464.00 C861.00,464.55 860.55,465.00 860.00,465.00 C859.45,465.00 859.00,464.55 859.00,464.00 C859.00,463.45 859.45,463.00 860.00,463.00 C860.55,463.00 861.00,463.45 861.00,464.00 ZM 884.00 464.00 C884.00,464.55 883.55,465.00 883.00,465.00 C882.45,465.00 882.00,464.55 882.00,464.00 C882.00,463.45 882.45,463.00 883.00,463.00 C883.55,463.00 884.00,463.45 884.00,464.00 ZM 874.00 468.00 C874.00,468.55 873.55,469.00 873.00,469.00 C872.45,469.00 872.00,468.55 872.00,468.00 C872.00,467.45 872.45,467.00 873.00,467.00 C873.55,467.00 874.00,467.45 874.00,468.00 ZM 806.00 469.00 C806.00,469.55 805.55,470.00 805.00,470.00 C804.45,470.00 804.00,469.55 804.00,469.00 C804.00,468.45 804.45,468.00 805.00,468.00 C805.55,468.00 806.00,468.45 806.00,469.00 ZM 392.00 470.00 C392.00,470.55 391.55,471.00 391.00,471.00 C390.45,471.00 390.00,470.55 390.00,470.00 C390.00,469.45 390.45,469.00 391.00,469.00 C391.55,469.00 392.00,469.45 392.00,470.00 ZM 469.00 473.00 C469.00,473.55 468.55,474.00 468.00,474.00 C467.45,474.00 467.00,473.55 467.00,473.00 C467.00,472.45 467.45,472.00 468.00,472.00 C468.55,472.00 469.00,472.45 469.00,473.00 ZM 667.00 478.00 C667.00,478.55 666.55,479.00 666.00,479.00 C665.45,479.00 665.00,478.55 665.00,478.00 C665.00,477.45 665.45,477.00 666.00,477.00 C666.55,477.00 667.00,477.45 667.00,478.00 ZM 373.00 479.00 C373.00,479.55 372.55,480.00 372.00,480.00 C371.45,480.00 371.00,479.55 371.00,479.00 C371.00,478.45 371.45,478.00 372.00,478.00 C372.55,478.00 373.00,478.45 373.00,479.00 ZM 724.00 484.00 C724.00,484.55 723.55,485.00 723.00,485.00 C722.45,485.00 722.00,484.55 722.00,484.00 C722.00,483.45 722.45,483.00 723.00,483.00 C723.55,483.00 724.00,483.45 724.00,484.00 ZM 326.00 486.00 C326.00,486.55 325.55,487.00 325.00,487.00 C324.45,487.00 324.00,486.55 324.00,486.00 C324.00,485.45 324.45,485.00 325.00,485.00 C325.55,485.00 326.00,485.45 326.00,486.00 ZM 479.00 486.00 C479.00,486.55 478.55,487.00 478.00,487.00 C477.45,487.00 477.00,486.55 477.00,486.00 C477.00,485.45 477.45,485.00 478.00,485.00 C478.55,485.00 479.00,485.45 479.00,486.00 ZM 646.00 492.00 C646.00,492.55 645.55,493.00 645.00,493.00 C644.45,493.00 644.00,492.55 644.00,492.00 C644.00,491.45 644.45,491.00 645.00,491.00 C645.55,491.00 646.00,491.45 646.00,492.00 ZM 522.00 497.00 C522.00,497.55 521.55,498.00 521.00,498.00 C520.45,498.00 520.00,497.55 520.00,497.00 C520.00,496.45 520.45,496.00 521.00,496.00 C521.55,496.00 522.00,496.45 522.00,497.00 ZM 919.00 503.00 C919.00,503.55 918.55,504.00 918.00,504.00 C917.45,504.00 917.00,503.55 917.00,503.00 C917.00,502.45 917.45,502.00 918.00,502.00 C918.55,502.00 919.00,502.45 919.00,503.00 ZM 405.00 510.00 C405.00,510.55 404.55,511.00 404.00,511.00 C403.45,511.00 403.00,510.55 403.00,510.00 C403.00,509.45 403.45,509.00 404.00,509.00 C404.55,509.00 405.00,509.45 405.00,510.00 ZM 540.77 338.29 C540.59,351.86 540.50,356.32 539.82,357.65 C540.37,355.50 540.61,349.97 540.77,338.21 L 541.04 318.08 ZM 533.92 638.25 C533.93,634.54 533.94,619.91 533.94,605.75 L 533.94 598.68 C534.00,607.33 533.98,619.94 533.92,638.25 ZM 558.52 365.56 C558.59,356.46 558.79,350.30 559.17,345.90 C558.86,350.65 558.64,357.70 558.52,365.56 ZM 560.28 338.72 C561.04,335.94 562.09,334.30 563.52,332.13 C563.63,331.97 563.73,331.82 563.84,331.66 C562.37,333.91 561.16,336.29 560.28,338.72 ZM 950.55 533.60 C950.50,534.68 950.38,535.41 949.97,535.87 C949.55,536.34 948.83,536.54 947.57,536.56 C948.63,536.53 949.31,536.33 949.76,535.89 C950.23,535.43 950.44,534.70 950.55,533.60 ZM 567.09 510.12 C570.21,513.87 574.16,517.15 578.47,519.48 C574.01,517.08 570.16,513.90 567.09,510.12 ZM 570.07 324.33 C574.13,320.56 578.66,318.02 583.23,317.04 C578.68,318.02 574.06,320.68 570.07,324.33 ZM 518.46 579.39 L 521.44 579.69 C520.24,579.65 519.36,579.62 519.00,579.60 C518.80,579.58 518.62,579.52 518.46,579.39 ZM 782.01 321.42 C781.87,322.61 782.59,324.45 783.72,327.30 C783.83,327.57 783.94,327.85 784.06,328.14 C783.81,327.53 783.58,326.96 783.37,326.43 C782.41,324.09 781.77,322.50 782.01,321.42 ZM 850.65 529.04 C847.95,528.78 846.03,528.52 845.78,528.37 C845.74,528.34 845.71,528.29 845.69,528.23 C846.15,528.46 848.05,528.76 850.65,529.04 ZM 889.00 532.02 C901.92,533.06 916.99,534.20 922.50,534.56 C916.99,534.20 901.92,533.07 889.00,532.03 C881.61,531.44 873.59,530.81 867.10,530.31 C873.63,530.80 881.65,531.43 889.00,532.02 ZM 750.94 334.52 C750.42,333.01 749.95,331.63 749.57,330.50 C748.28,326.66 746.65,322.27 745.94,320.74 C746.65,322.27 748.28,326.66 749.57,330.50 C750.02,331.82 750.48,333.16 750.94,334.52 ZM 949.42 492.04 C948.51,492.27 947.29,492.85 945.69,493.61 C945.85,493.54 946.00,493.46 946.15,493.39 C947.54,492.73 948.61,492.22 949.42,492.04 ZM 517.21 571.23 L 516.92 562.97 L 517.21 571.13 L 517.26 572.45 C517.24,572.06 517.22,571.66 517.21,571.23 ZM 483.96 356.93 L 484.23 378.19 L 483.96 356.93 Z" fill="rgb(150,146,143)"/>
<path d="M 103.17 662.04 C103.35,661.51 110.94,653.07 120.02,643.29 C138.44,623.46 147.00,613.72 147.00,612.59 C147.00,610.89 131.54,593.02 113.75,574.17 C108.39,568.48 104.00,563.42 104.00,562.92 C104.00,561.44 173.17,561.79 175.00,563.28 C176.29,564.32 209.51,599.14 218.31,608.67 L 221.23 611.84 L 196.92 637.42 L 172.61 663.00 L 137.72 663.00 C115.85,663.00 102.96,662.64 103.17,662.04 ZM 185.00 624.00 C185.00,623.45 184.07,623.00 182.94,623.00 C181.81,623.00 181.16,623.45 181.50,624.00 C181.84,624.55 182.77,625.00 183.56,625.00 C184.35,625.00 185.00,624.55 185.00,624.00 ZM 179.00 622.00 C179.00,621.45 178.55,621.00 178.00,621.00 C177.45,621.00 177.00,621.45 177.00,622.00 C177.00,622.55 177.45,623.00 178.00,623.00 C178.55,623.00 179.00,622.55 179.00,622.00 ZM 159.00 620.00 C159.00,619.45 158.55,619.00 158.00,619.00 C157.45,619.00 157.00,619.45 157.00,620.00 C157.00,620.55 157.45,621.00 158.00,621.00 C158.55,621.00 159.00,620.55 159.00,620.00 ZM 149.00 576.00 C149.00,575.45 148.55,575.00 148.00,575.00 C147.45,575.00 147.00,575.45 147.00,576.00 C147.00,576.55 147.45,577.00 148.00,577.00 C148.55,577.00 149.00,576.55 149.00,576.00 ZM 470.33 645.99 C463.34,644.97 457.21,641.39 453.54,636.17 L 450.50 631.83 L 450.21 597.42 L 449.93 563.00 L 459.44 563.00 L 468.96 563.00 L 468.95 591.75 C468.94,607.56 468.95,621.53 468.97,622.80 C469.02,626.56 473.29,630.00 477.90,630.00 C484.98,630.00 485.00,629.92 485.00,594.28 L 485.00 563.00 L 494.50 563.00 L 504.00 563.00 L 503.98 595.75 C503.96,625.37 503.78,628.88 502.12,632.50 C498.84,639.65 492.90,644.28 485.47,645.46 C477.98,646.66 475.49,646.74 470.33,645.99 ZM 266.72 643.58 C263.55,642.27 260.25,640.62 259.40,639.92 C256.42,637.44 254.26,631.45 253.77,624.25 L 253.27 617.00 L 262.88 617.00 L 272.50 617.00 L 272.60 621.50 C272.72,627.55 275.01,630.00 280.52,630.00 C288.81,630.00 292.84,622.89 288.02,616.76 C286.94,615.37 280.94,611.77 274.70,608.74 C262.40,602.79 256.95,598.70 255.00,594.00 C254.19,592.05 253.91,587.84 254.19,582.00 C254.58,573.70 254.84,572.77 257.56,569.91 C263.14,564.03 267.28,562.62 280.18,562.19 C291.05,561.82 292.26,561.97 297.47,564.36 C304.30,567.48 306.19,571.12 306.37,581.50 L 306.50 588.50 L 298.03 588.50 L 289.56 588.50 L 288.81 584.14 C288.40,581.75 287.55,579.16 286.91,578.39 C285.15,576.27 276.70,576.57 274.65,578.83 C272.49,581.22 272.47,588.33 274.63,590.49 C275.52,591.38 282.22,594.98 289.51,598.49 C305.99,606.41 307.04,607.63 307.62,619.62 C308.15,630.34 306.79,635.52 302.36,639.70 C295.38,646.28 277.91,648.18 266.72,643.58 ZM 258.00 630.00 C258.00,629.45 257.55,629.00 257.00,629.00 C256.45,629.00 256.00,629.45 256.00,630.00 C256.00,630.55 256.45,631.00 257.00,631.00 C257.55,631.00 258.00,630.55 258.00,630.00 ZM 304.00 619.00 C304.00,618.45 303.55,618.00 303.00,618.00 C302.45,618.00 302.00,618.45 302.00,619.00 C302.00,619.55 302.45,620.00 303.00,620.00 C303.55,620.00 304.00,619.55 304.00,619.00 ZM 298.00 567.00 C298.00,566.45 297.55,566.00 297.00,566.00 C296.45,566.00 296.00,566.45 296.00,567.00 C296.00,567.55 296.45,568.00 297.00,568.00 C297.55,568.00 298.00,567.55 298.00,567.00 ZM 337.99 645.13 C330.60,642.70 323.79,636.67 322.26,631.23 C321.06,626.94 321.66,579.56 322.96,575.61 C325.65,567.47 335.55,561.92 347.76,561.71 C357.72,561.53 364.02,563.34 368.47,567.67 C375.30,574.30 375.47,575.05 375.82,600.27 C376.26,631.95 375.06,636.36 364.29,642.68 C360.43,644.94 358.42,645.36 350.14,645.63 C344.84,645.81 339.37,645.58 337.99,645.13 ZM 354.14 628.09 C356.47,626.20 356.50,625.91 356.76,604.84 C356.96,589.04 356.70,582.86 355.75,581.03 C354.29,578.22 349.35,576.45 345.59,577.39 C340.95,578.55 340.24,581.80 340.18,602.00 C340.14,621.38 340.92,627.27 343.78,628.94 C346.56,630.56 351.60,630.15 354.14,628.09 ZM 632.31 643.07 C620.79,637.62 618.99,632.08 619.01,602.11 C619.03,578.06 620.01,573.20 625.97,567.84 C633.10,561.44 649.69,559.58 661.09,563.90 C672.91,568.39 674.00,571.72 673.99,603.38 C673.99,617.12 673.54,629.12 672.94,631.28 C670.32,640.72 660.90,646.00 646.71,646.00 C639.71,646.00 637.59,645.57 632.31,643.07 ZM 652.93 627.37 C654.87,624.89 655.00,623.47 654.99,604.12 C654.97,580.72 654.51,578.70 649.09,578.18 C638.71,577.18 637.73,579.63 638.16,605.71 C638.49,625.82 638.54,626.21 640.86,628.09 C644.45,631.00 650.35,630.64 652.93,627.37 ZM 636.00 587.00 C636.00,586.45 635.55,586.00 635.00,586.00 C634.45,586.00 634.00,586.45 634.00,587.00 C634.00,587.55 634.45,588.00 635.00,588.00 C635.55,588.00 636.00,587.55 636.00,587.00 ZM 638.00 569.00 C638.00,568.45 637.55,568.00 637.00,568.00 C636.45,568.00 636.00,568.45 636.00,569.00 C636.00,569.55 636.45,570.00 637.00,570.00 C637.55,570.00 638.00,569.55 638.00,569.00 ZM 778.00 645.04 C764.77,642.54 760.00,636.98 760.00,624.04 L 760.00 617.00 L 769.00 617.00 L 778.00 617.00 L 778.00 621.46 C778.00,627.30 780.70,630.00 786.53,630.00 C791.14,630.00 793.41,628.22 794.53,623.75 C796.00,617.86 794.78,616.55 781.25,609.50 C766.85,602.00 765.00,600.69 762.08,595.90 C759.00,590.84 759.12,577.98 762.31,571.95 C765.96,565.05 771.70,562.65 785.50,562.26 C795.85,561.97 796.82,562.12 801.95,564.73 C809.90,568.77 811.50,571.46 811.50,580.82 L 811.50 588.50 L 803.00 588.50 L 794.50 588.50 L 793.94 584.34 C793.17,578.53 791.60,577.00 786.38,577.00 C780.66,577.00 778.00,579.53 778.00,584.95 C778.00,589.84 780.41,591.87 794.00,598.38 C808.02,605.10 809.88,606.47 812.20,611.72 C815.57,619.33 813.74,633.41 808.68,638.85 C803.24,644.70 790.16,647.34 778.00,645.04 ZM 392.69 644.35 C392.31,643.98 392.00,625.52 392.00,603.33 L 392.00 563.00 L 401.50 563.00 L 411.00 563.00 L 411.00 594.80 C411.00,618.20 411.32,626.92 412.20,627.80 C413.00,628.60 417.36,629.00 425.24,629.00 L 437.08 629.00 L 436.79 636.75 L 436.50 644.50 L 414.94 644.77 C403.08,644.92 393.06,644.73 392.69,644.35 ZM 533.92 638.25 C534.10,584.81 533.97,580.00 532.33,580.00 C531.45,580.00 530.11,579.21 529.36,578.25 C528.07,576.59 527.93,576.59 526.61,578.29 C525.58,579.61 524.21,579.98 521.36,579.69 L 517.50 579.29 L 517.21 571.13 L 516.92 562.97 L 543.71 563.23 L 570.50 563.50 L 570.50 571.50 L 570.50 579.50 L 561.76 579.79 L 553.03 580.08 L 552.76 612.29 L 552.50 644.50 L 543.20 644.75 L 533.89 645.01 L 533.92 638.25 ZM 542.50 604.00 C542.84,603.45 542.42,603.00 541.56,603.00 C540.70,603.00 540.00,603.45 540.00,604.00 C540.00,604.55 540.42,605.00 540.94,605.00 C541.46,605.00 542.16,604.55 542.50,604.00 ZM 584.66 635.29 C583.82,622.67 583.81,573.69 584.64,567.64 L 585.27 563.00 L 594.65 563.00 L 604.02 563.00 L 603.76 603.75 L 603.50 644.50 L 594.40 644.79 L 585.31 645.07 L 584.66 635.29 ZM 690.00 604.04 L 690.00 563.00 L 698.46 563.00 L 706.91 563.00 L 716.71 582.50 C722.09,593.22 726.88,601.99 727.34,602.00 C727.81,602.00 727.86,593.22 727.46,582.50 L 726.73 563.00 L 735.87 563.00 L 745.00 563.00 L 745.05 580.75 C745.08,590.51 745.19,608.85 745.30,621.50 L 745.50 644.50 L 736.91 644.79 L 728.33 645.07 L 723.04 634.29 C720.13,628.35 715.72,619.33 713.23,614.23 C710.74,609.13 708.44,605.23 708.10,605.56 C707.77,605.89 707.28,614.79 707.00,625.33 L 706.50 644.50 L 698.25 644.79 L 690.00 645.08 L 690.00 604.04 ZM 49.95 535.27 C45.89,533.18 42.48,530.73 42.21,529.71 C41.95,528.71 41.16,528.11 40.46,528.38 C38.92,528.97 34.90,523.34 32.02,516.57 C30.10,512.07 29.93,509.91 30.06,491.25 C30.17,476.89 30.55,470.76 31.35,470.54 C34.00,469.80 71.29,467.95 71.87,468.53 C72.21,468.88 72.65,474.71 72.83,481.50 C73.23,496.50 73.59,497.02 83.95,497.76 C92.16,498.35 96.11,497.06 99.15,492.79 C101.10,490.05 101.21,488.87 100.79,475.17 C100.17,455.29 100.26,455.42 83.41,447.00 C76.26,443.42 64.90,437.87 58.18,434.66 C44.75,428.25 37.93,422.69 33.95,414.92 C32.11,411.35 31.53,408.01 30.89,397.50 C29.53,374.92 29.82,350.67 31.56,343.02 C34.36,330.73 42.45,321.45 53.19,318.22 C59.01,316.47 61.71,316.38 88.00,317.01 C114.68,317.65 116.84,317.84 121.79,319.99 C128.00,322.68 133.76,328.78 137.74,336.88 C140.44,342.37 140.51,342.97 140.85,363.10 L 141.20 383.69 L 134.35 384.34 C130.58,384.69 121.60,384.99 114.40,384.99 L 101.30 385.00 L 100.73 373.56 C100.09,360.55 98.84,356.98 94.51,355.84 C90.53,354.78 76.12,356.45 74.45,358.15 C73.53,359.09 72.95,364.26 72.52,375.18 C71.66,397.43 70.58,395.75 92.67,406.68 C102.48,411.54 114.63,417.48 119.68,419.89 C129.93,424.77 133.47,427.95 137.65,436.00 L 140.50 441.50 L 140.50 474.00 C140.50,502.57 140.28,507.21 138.68,512.38 C135.27,523.45 122.57,533.55 109.00,535.99 C102.70,537.12 74.97,538.99 64.35,539.00 C58.06,539.00 56.34,538.55 49.95,535.27 ZM 78.00 533.00 C78.00,532.45 77.55,532.00 77.00,532.00 C76.45,532.00 76.00,532.45 76.00,533.00 C76.00,533.55 76.45,534.00 77.00,534.00 C77.55,534.00 78.00,533.55 78.00,533.00 ZM 51.00 521.00 C51.00,520.45 50.55,520.00 50.00,520.00 C49.45,520.00 49.00,520.45 49.00,521.00 C49.00,521.55 49.45,522.00 50.00,522.00 C50.55,522.00 51.00,521.55 51.00,521.00 ZM 109.00 467.00 C109.00,466.45 108.32,466.00 107.50,466.00 C106.68,466.00 106.00,466.45 106.00,467.00 C106.00,467.55 106.68,468.00 107.50,468.00 C108.32,468.00 109.00,467.55 109.00,467.00 ZM 138.00 460.00 C138.00,459.45 137.55,459.00 137.00,459.00 C136.45,459.00 136.00,459.45 136.00,460.00 C136.00,460.55 136.45,461.00 137.00,461.00 C137.55,461.00 138.00,460.55 138.00,460.00 ZM 138.00 452.11 C138.00,451.62 137.32,450.95 136.50,450.64 C134.98,450.05 134.45,451.12 135.67,452.33 C136.62,453.29 138.00,453.16 138.00,452.11 ZM 111.00 420.00 C111.00,419.45 110.55,419.00 110.00,419.00 C109.45,419.00 109.00,419.45 109.00,420.00 C109.00,420.55 109.45,421.00 110.00,421.00 C110.55,421.00 111.00,420.55 111.00,420.00 ZM 60.50 418.00 C60.84,417.45 60.42,417.00 59.56,417.00 C58.70,417.00 58.00,417.45 58.00,418.00 C58.00,418.55 58.42,419.00 58.94,419.00 C59.46,419.00 60.16,418.55 60.50,418.00 ZM 62.81 414.92 C62.61,414.33 62.02,413.85 61.50,413.85 C60.98,413.85 60.39,414.33 60.19,414.92 C59.99,415.52 60.58,416.00 61.50,416.00 C62.42,416.00 63.01,415.52 62.81,414.92 ZM 85.36 407.50 C84.75,405.91 83.00,405.42 83.00,406.83 C83.00,407.89 84.09,409.00 85.14,409.00 C85.58,409.00 85.68,408.33 85.36,407.50 ZM 126.00 368.00 C126.00,367.45 125.55,367.00 125.00,367.00 C124.45,367.00 124.00,367.45 124.00,368.00 C124.00,368.55 124.45,369.00 125.00,369.00 C125.55,369.00 126.00,368.55 126.00,368.00 ZM 136.36 361.50 C136.71,360.60 136.37,360.00 135.53,360.00 C133.88,360.00 132.77,361.43 133.69,362.36 C134.75,363.41 135.75,363.09 136.36,361.50 ZM 102.05 352.50 C101.97,351.02 99.74,351.29 99.22,352.85 C98.94,353.69 99.39,354.06 100.44,353.85 C101.36,353.66 102.08,353.05 102.05,352.50 ZM 60.50 352.00 C60.84,351.45 60.42,351.00 59.56,351.00 C58.70,351.00 58.00,351.45 58.00,352.00 C58.00,352.55 58.42,353.00 58.94,353.00 C59.46,353.00 60.16,352.55 60.50,352.00 ZM 63.00 347.00 C63.00,346.45 62.55,346.00 62.00,346.00 C61.45,346.00 61.00,346.45 61.00,347.00 C61.00,347.55 61.45,348.00 62.00,348.00 C62.55,348.00 63.00,347.55 63.00,347.00 ZM 78.81 330.92 C78.61,330.33 78.02,329.85 77.50,329.85 C76.98,329.85 76.39,330.33 76.19,330.92 C75.99,331.52 76.58,332.00 77.50,332.00 C78.42,332.00 79.01,331.52 78.81,330.92 ZM 940.00 535.96 C935.88,535.54 928.00,534.91 922.50,534.56 C917.00,534.20 901.92,533.06 889.00,532.02 C876.08,530.98 861.11,529.84 855.75,529.47 C850.39,529.11 845.82,528.52 845.59,528.15 C845.37,527.79 846.37,524.79 847.83,521.50 L 850.47 515.50 L 850.78 477.01 C851.04,444.35 851.31,438.40 852.57,437.70 C853.38,437.25 853.78,436.45 853.45,435.92 C853.13,435.40 852.44,435.23 851.93,435.54 C851.37,435.89 851.00,430.52 851.00,422.15 C851.00,408.34 851.02,408.19 853.16,408.75 C854.63,409.14 855.09,408.95 854.60,408.16 C854.20,407.52 853.25,407.00 852.48,407.00 C851.31,407.00 851.08,400.83 851.08,368.47 L 851.08 329.94 L 848.32 325.03 C846.80,322.32 845.91,319.76 846.33,319.33 C846.76,318.91 870.48,318.39 899.05,318.19 L 951.00 317.83 L 951.00 338.25 C951.00,349.48 950.75,358.92 950.44,359.23 C950.13,359.53 948.60,359.15 947.03,358.37 C944.85,357.28 938.41,356.90 919.09,356.72 L 894.00 356.50 L 894.00 358.81 C894.00,360.64 893.53,361.06 891.75,360.81 C890.06,360.58 889.50,361.00 889.50,362.50 C889.50,363.81 890.12,364.45 891.29,364.36 C892.67,364.24 892.82,364.51 891.96,365.55 C891.35,366.28 890.11,366.60 889.21,366.25 C887.75,365.69 887.73,365.80 889.03,367.23 C889.93,368.21 890.87,368.48 891.45,367.92 C891.97,367.41 892.76,367.00 893.20,367.00 C893.64,367.00 894.00,375.28 894.00,385.39 L 894.00 403.78 L 909.25 404.20 C918.83,404.46 926.73,404.17 930.50,403.41 C933.80,402.75 936.58,402.28 936.68,402.36 C937.24,402.85 937.22,447.11 936.66,447.68 C936.28,448.05 934.29,447.54 932.24,446.54 C927.92,444.43 896.55,442.05 894.89,443.71 C893.71,444.89 893.65,490.05 894.84,491.24 C895.32,491.72 906.20,492.82 919.01,493.67 C940.37,495.09 942.59,495.09 945.69,493.61 C952.36,490.43 952.35,490.41 951.54,505.75 C951.09,514.30 950.38,519.78 949.66,520.25 C948.79,520.81 948.81,521.20 949.72,521.79 C950.52,522.31 950.86,524.95 950.72,529.53 C950.47,537.47 951.10,537.09 940.00,535.96 ZM 887.00 525.00 C887.00,524.45 886.55,524.00 886.00,524.00 C885.45,524.00 885.00,524.45 885.00,525.00 C885.00,525.55 885.45,526.00 886.00,526.00 C886.55,526.00 887.00,525.55 887.00,525.00 ZM 863.60 519.40 C863.28,518.56 862.57,518.15 862.03,518.48 C861.40,518.87 861.49,519.81 862.27,521.06 C863.58,523.16 864.57,521.94 863.60,519.40 ZM 900.00 504.94 C900.00,504.42 899.55,504.00 899.00,504.00 C898.45,504.00 898.00,504.70 898.00,505.56 C898.00,506.42 898.45,506.84 899.00,506.50 C899.55,506.16 900.00,505.46 900.00,504.94 ZM 919.00 503.00 C919.00,502.45 918.55,502.00 918.00,502.00 C917.45,502.00 917.00,502.45 917.00,503.00 C917.00,503.55 917.45,504.00 918.00,504.00 C918.55,504.00 919.00,503.55 919.00,503.00 ZM 870.60 473.27 C869.59,472.25 868.75,473.78 869.58,475.13 C870.21,476.15 870.45,476.15 870.79,475.14 C871.02,474.44 870.94,473.60 870.60,473.27 ZM 875.50 471.00 C875.84,470.45 875.19,470.00 874.06,470.00 C872.93,470.00 872.00,470.45 872.00,471.00 C872.00,471.55 872.65,472.00 873.44,472.00 C874.23,472.00 875.16,471.55 875.50,471.00 ZM 874.00 468.00 C874.00,467.45 873.55,467.00 873.00,467.00 C872.45,467.00 872.00,467.45 872.00,468.00 C872.00,468.55 872.45,469.00 873.00,469.00 C873.55,469.00 874.00,468.55 874.00,468.00 ZM 859.00 467.00 C859.00,466.45 858.33,466.00 857.50,466.00 C856.67,466.00 856.00,466.45 856.00,467.00 C856.00,467.55 856.67,468.00 857.50,468.00 C858.33,468.00 859.00,467.55 859.00,467.00 ZM 861.00 464.00 C861.00,463.45 860.55,463.00 860.00,463.00 C859.45,463.00 859.00,463.45 859.00,464.00 C859.00,464.55 859.45,465.00 860.00,465.00 C860.55,465.00 861.00,464.55 861.00,464.00 ZM 884.00 464.00 C884.00,463.45 883.55,463.00 883.00,463.00 C882.45,463.00 882.00,463.45 882.00,464.00 C882.00,464.55 882.45,465.00 883.00,465.00 C883.55,465.00 884.00,464.55 884.00,464.00 ZM 858.98 457.58 C857.63,456.23 856.63,457.59 857.43,459.68 C858.00,461.18 858.24,461.22 859.01,459.98 C859.56,459.10 859.54,458.14 858.98,457.58 ZM 892.00 440.00 C892.00,439.45 891.55,439.00 891.00,439.00 C890.45,439.00 890.00,439.45 890.00,440.00 C890.00,440.55 890.45,441.00 891.00,441.00 C891.55,441.00 892.00,440.55 892.00,440.00 ZM 881.00 428.00 C881.00,427.45 880.55,427.00 880.00,427.00 C879.45,427.00 879.00,427.45 879.00,428.00 C879.00,428.55 879.45,429.00 880.00,429.00 C880.55,429.00 881.00,428.55 881.00,428.00 ZM 922.00 412.00 C922.00,411.45 921.55,411.00 921.00,411.00 C920.45,411.00 920.00,411.45 920.00,412.00 C920.00,412.55 920.45,413.00 921.00,413.00 C921.55,413.00 922.00,412.55 922.00,412.00 ZM 878.00 410.00 C878.00,409.45 877.33,409.00 876.50,409.00 C875.67,409.00 875.00,409.45 875.00,410.00 C875.00,410.55 875.67,411.00 876.50,411.00 C877.33,411.00 878.00,410.55 878.00,410.00 ZM 875.36 380.50 C875.71,379.59 875.36,379.00 874.47,379.00 C873.66,379.00 873.00,379.67 873.00,380.50 C873.00,381.33 873.40,382.00 873.89,382.00 C874.38,382.00 875.05,381.33 875.36,380.50 ZM 876.00 376.06 C876.00,374.88 874.05,373.62 873.33,374.33 C872.62,375.05 873.88,377.00 875.06,377.00 C875.58,377.00 876.00,376.58 876.00,376.06 ZM 855.20 339.80 C854.56,339.16 853.70,338.97 853.30,339.37 C852.89,339.78 853.21,340.51 854.00,341.00 C854.79,341.49 855.65,341.68 855.90,341.43 C856.16,341.17 855.84,340.44 855.20,339.80 ZM 897.00 337.00 C899.58,334.42 899.52,333.79 896.75,334.18 C895.30,334.39 894.39,335.30 894.18,336.75 C893.79,339.52 894.42,339.58 897.00,337.00 ZM 185.96 526.66 C175.88,523.68 172.12,521.34 168.32,515.70 C161.43,505.48 161.66,508.82 161.42,414.50 C161.23,339.73 161.02,328.96 159.62,325.00 C158.74,322.52 158.02,320.16 158.01,319.75 C158.01,319.34 169.48,319.00 183.50,319.00 C197.96,319.00 209.00,319.39 209.00,319.90 C209.00,320.40 207.88,323.21 206.51,326.15 L 204.02 331.50 L 204.01 410.18 L 204.00 488.85 L 206.63 490.93 C208.72,492.57 210.70,493.00 216.17,493.00 C224.96,493.00 229.17,491.27 231.31,486.76 C232.78,483.67 233.01,476.15 233.42,419.89 C233.95,346.89 233.40,330.59 230.16,324.29 C228.97,321.97 228.00,319.84 228.00,319.54 C228.00,319.24 239.48,319.00 253.50,319.00 C275.04,319.00 279.00,319.22 279.00,320.44 C279.00,321.23 278.58,322.14 278.08,322.45 C277.57,322.77 276.44,325.16 275.58,327.77 C274.20,331.91 273.97,343.13 273.74,416.01 C273.49,498.42 273.46,499.57 271.37,504.63 C268.80,510.89 263.91,518.14 260.42,520.88 C254.21,525.77 248.03,527.00 224.64,528.01 C195.38,529.27 194.71,529.25 185.96,526.66 ZM 188.00 436.00 C188.00,435.45 187.55,435.00 187.00,435.00 C186.45,435.00 186.00,435.45 186.00,436.00 C186.00,436.55 186.45,437.00 187.00,437.00 C187.55,437.00 188.00,436.55 188.00,436.00 ZM 167.00 420.00 C167.00,419.45 166.55,419.00 166.00,419.00 C165.45,419.00 165.00,419.45 165.00,420.00 C165.00,420.55 165.45,421.00 166.00,421.00 C166.55,421.00 167.00,420.55 167.00,420.00 ZM 237.00 410.00 C237.00,409.45 236.55,409.00 236.00,409.00 C235.45,409.00 235.00,409.45 235.00,410.00 C235.00,410.55 235.45,411.00 236.00,411.00 C236.55,411.00 237.00,410.55 237.00,410.00 ZM 262.00 395.50 C262.00,394.67 261.55,394.00 261.00,394.00 C260.45,394.00 260.00,394.67 260.00,395.50 C260.00,396.33 260.45,397.00 261.00,397.00 C261.55,397.00 262.00,396.33 262.00,395.50 ZM 181.00 395.00 C181.00,394.45 180.55,394.00 180.00,394.00 C179.45,394.00 179.00,394.45 179.00,395.00 C179.00,395.55 179.45,396.00 180.00,396.00 C180.55,396.00 181.00,395.55 181.00,395.00 ZM 195.00 366.00 C195.00,365.45 194.32,365.00 193.50,365.00 C192.68,365.00 192.00,365.45 192.00,366.00 C192.00,366.55 192.68,367.00 193.50,367.00 C194.32,367.00 195.00,366.55 195.00,366.00 ZM 803.00 527.73 C798.33,527.31 791.88,526.86 788.67,526.73 L 782.85 526.50 L 777.28 511.50 C774.22,503.25 768.92,488.85 765.49,479.50 C758.36,460.06 750.03,437.52 746.45,427.98 C745.10,424.39 744.00,420.73 744.00,419.85 C744.00,418.97 743.33,417.68 742.50,417.00 C741.20,415.92 741.00,416.44 741.00,420.88 C741.00,424.59 740.62,426.00 739.61,426.00 C738.84,426.00 737.94,426.70 737.61,427.57 C737.15,428.77 737.48,428.98 739.01,428.50 C740.98,427.87 741.00,428.37 741.03,468.18 L 741.07 508.50 L 744.02 515.98 C747.75,525.44 747.15,526.42 738.47,524.99 C735.19,524.45 724.70,523.61 715.16,523.12 C705.63,522.63 697.45,521.84 696.99,521.36 C696.53,520.89 697.33,517.80 698.76,514.50 L 701.37 508.50 L 701.09 422.50 C700.93,375.20 700.64,334.81 700.44,332.74 C700.24,330.67 699.15,326.88 698.02,324.31 C696.54,320.97 696.28,319.44 697.10,318.94 C697.73,318.55 708.69,318.17 721.45,318.10 L 744.66 317.96 L 745.94 320.73 C746.64,322.25 748.27,326.65 749.57,330.50 C750.86,334.35 753.26,341.20 754.91,345.72 C756.63,350.46 757.50,354.19 756.95,354.53 C755.49,355.43 755.82,357.00 757.46,357.00 C759.52,357.00 760.37,358.91 766.04,376.21 C773.02,397.47 784.12,427.00 785.15,427.00 C785.62,427.00 786.02,425.31 786.04,423.25 C786.06,421.19 786.08,400.12 786.09,376.43 C786.11,335.30 786.02,333.12 784.06,328.14 C780.46,319.01 780.07,319.31 795.50,319.09 C807.90,318.91 809.00,319.04 809.03,320.70 C809.06,322.41 809.13,322.41 810.39,320.75 C811.48,319.32 813.30,319.00 820.36,319.00 L 829.00 319.00 L 829.00 323.07 C829.00,325.30 828.48,328.11 827.84,329.30 C826.97,330.92 826.74,356.74 826.91,430.21 L 827.15 528.95 L 819.32 528.72 C815.02,528.60 807.67,528.15 803.00,527.73 ZM 809.00 524.00 C809.00,523.45 808.55,523.00 808.00,523.00 C807.45,523.00 807.00,523.45 807.00,524.00 C807.00,524.55 807.45,525.00 808.00,525.00 C808.55,525.00 809.00,524.55 809.00,524.00 ZM 784.00 509.00 C784.00,508.45 783.10,508.00 782.00,508.00 C780.90,508.00 780.00,508.45 780.00,509.00 C780.00,509.55 780.90,510.00 782.00,510.00 C783.10,510.00 784.00,509.55 784.00,509.00 ZM 724.00 484.00 C724.00,483.45 723.55,483.00 723.00,483.00 C722.45,483.00 722.00,483.45 722.00,484.00 C722.00,484.55 722.45,485.00 723.00,485.00 C723.55,485.00 724.00,484.55 724.00,484.00 ZM 806.00 469.00 C806.00,468.45 805.55,468.00 805.00,468.00 C804.45,468.00 804.00,468.45 804.00,469.00 C804.00,469.55 804.45,470.00 805.00,470.00 C805.55,470.00 806.00,469.55 806.00,469.00 ZM 816.00 463.00 C816.00,462.45 815.55,462.00 815.00,462.00 C814.45,462.00 814.00,462.45 814.00,463.00 C814.00,463.55 814.45,464.00 815.00,464.00 C815.55,464.00 816.00,463.55 816.00,463.00 ZM 825.00 456.00 C825.00,455.45 824.55,455.00 824.00,455.00 C823.45,455.00 823.00,455.45 823.00,456.00 C823.00,456.55 823.45,457.00 824.00,457.00 C824.55,457.00 825.00,456.55 825.00,456.00 ZM 794.00 423.00 C794.00,422.45 793.55,422.00 793.00,422.00 C792.45,422.00 792.00,422.45 792.00,423.00 C792.00,423.55 792.45,424.00 793.00,424.00 C793.55,424.00 794.00,423.55 794.00,423.00 ZM 800.00 422.00 C800.00,421.45 799.55,421.00 799.00,421.00 C798.45,421.00 798.00,421.45 798.00,422.00 C798.00,422.55 798.45,423.00 799.00,423.00 C799.55,423.00 800.00,422.55 800.00,422.00 ZM 734.00 405.00 C734.00,404.45 733.55,404.00 733.00,404.00 C732.45,404.00 732.00,404.45 732.00,405.00 C732.00,405.55 732.45,406.00 733.00,406.00 C733.55,406.00 734.00,405.55 734.00,405.00 ZM 747.00 381.00 C747.00,380.45 746.58,380.00 746.06,380.00 C745.54,380.00 744.84,380.45 744.50,381.00 C744.16,381.55 744.58,382.00 745.44,382.00 C746.30,382.00 747.00,381.55 747.00,381.00 ZM 814.00 348.00 C814.00,347.45 813.55,347.00 813.00,347.00 C812.45,347.00 812.00,347.45 812.00,348.00 C812.00,348.55 812.45,349.00 813.00,349.00 C813.55,349.00 814.00,348.55 814.00,348.00 ZM 709.00 340.00 C709.00,339.45 708.55,339.00 708.00,339.00 C707.45,339.00 707.00,338.33 707.00,337.50 C707.00,336.67 706.55,336.00 706.00,336.00 C704.62,336.00 704.75,337.80 706.25,339.50 C707.72,341.18 709.00,341.41 709.00,340.00 ZM 739.00 329.00 C739.00,328.45 738.33,328.00 737.50,328.00 C736.67,328.00 736.00,328.45 736.00,329.00 C736.00,329.55 736.67,330.00 737.50,330.00 C738.33,330.00 739.00,329.55 739.00,329.00 ZM 807.00 329.00 C807.00,328.45 806.55,328.00 806.00,328.00 C805.45,328.00 805.00,328.45 805.00,329.00 C805.00,329.55 805.45,330.00 806.00,330.00 C806.55,330.00 807.00,329.55 807.00,329.00 ZM 818.00 327.00 C818.00,326.45 817.55,326.00 817.00,326.00 C816.45,326.00 816.00,326.45 816.00,327.00 C816.00,327.55 816.45,328.00 817.00,328.00 C817.55,328.00 818.00,327.55 818.00,327.00 ZM 643.88 524.54 C643.54,524.21 630.04,523.60 613.88,523.19 C586.03,522.49 584.25,522.34 579.77,520.15 C572.27,516.49 565.70,509.92 562.41,502.80 L 559.50 496.50 L 559.00 458.25 C558.61,428.05 558.76,420.00 559.75,420.00 C560.44,420.00 561.00,419.55 561.00,419.00 C561.00,418.45 560.44,418.00 559.75,418.00 C557.89,418.00 557.96,346.29 559.83,340.11 C563.10,329.26 573.35,319.16 583.23,317.04 C588.87,315.83 642.78,315.48 650.09,316.60 C662.93,318.58 674.10,329.50 676.89,342.83 C678.59,350.92 678.32,491.09 676.60,497.62 C673.86,508.00 667.55,516.37 659.08,520.86 C653.69,523.72 645.13,525.80 643.88,524.54 ZM 661.00 501.50 C661.00,500.67 660.81,500.00 660.58,500.00 C660.35,500.00 659.48,499.74 658.65,499.42 C657.52,498.99 657.28,499.36 657.69,500.92 C658.31,503.30 661.00,503.77 661.00,501.50 ZM 660.31 494.62 C660.61,493.86 660.37,492.77 659.80,492.20 C658.63,491.03 656.00,491.70 656.00,493.17 C656.00,493.69 656.45,493.84 657.00,493.50 C657.55,493.16 658.00,493.58 658.00,494.44 C658.00,496.37 659.60,496.49 660.31,494.62 ZM 646.00 492.00 C646.00,491.45 645.55,491.00 645.00,491.00 C644.45,491.00 644.00,491.45 644.00,492.00 C644.00,492.55 644.45,493.00 645.00,493.00 C645.55,493.00 646.00,492.55 646.00,492.00 ZM 631.71 485.39 C636.39,482.46 636.35,482.97 636.14,419.04 C635.95,364.89 635.76,358.39 634.31,356.79 C632.93,355.27 630.97,355.00 621.28,355.00 C615.00,355.00 609.00,355.46 607.94,356.03 C603.01,358.67 603.00,358.85 603.01,420.70 C603.02,452.49 603.28,479.43 603.58,480.56 C604.06,482.35 609.53,485.94 614.00,487.39 C616.68,488.26 629.44,486.82 631.71,485.39 ZM 667.00 478.00 C667.00,477.45 666.55,477.00 666.00,477.00 C665.45,477.00 665.00,477.45 665.00,478.00 C665.00,478.55 665.45,479.00 666.00,479.00 C666.55,479.00 667.00,478.55 667.00,478.00 ZM 654.42 475.45 C655.24,472.19 654.51,471.05 652.00,471.71 C649.59,472.34 649.41,473.56 651.61,474.40 C652.92,474.91 652.99,475.31 651.99,476.51 C650.99,477.72 651.04,478.00 652.27,478.00 C653.10,478.00 654.07,476.85 654.42,475.45 ZM 673.00 474.06 C673.00,472.07 671.70,470.64 670.75,471.59 C669.96,472.37 671.09,476.00 672.12,476.00 C672.60,476.00 673.00,475.13 673.00,474.06 ZM 645.00 467.00 C645.00,466.45 644.58,466.00 644.06,466.00 C643.54,466.00 642.84,466.45 642.50,467.00 C642.16,467.55 642.58,468.00 643.44,468.00 C644.30,468.00 645.00,467.55 645.00,467.00 ZM 646.81 444.06 C647.06,443.31 646.69,442.94 645.94,443.19 C645.22,443.43 644.43,444.22 644.19,444.94 C643.94,445.69 644.31,446.06 645.06,445.81 C645.78,445.57 646.57,444.78 646.81,444.06 ZM 568.00 430.50 C568.00,429.67 567.55,429.00 567.00,429.00 C566.45,429.00 566.00,429.67 566.00,430.50 C566.00,431.33 566.45,432.00 567.00,432.00 C567.55,432.00 568.00,431.33 568.00,430.50 ZM 663.24 426.51 C663.51,425.13 663.40,424.00 663.01,424.00 C661.45,424.00 656.00,427.21 656.00,428.13 C656.00,428.67 656.45,428.84 656.99,428.50 C657.54,428.17 658.77,428.33 659.72,428.86 C661.94,430.10 662.65,429.63 663.24,426.51 ZM 571.00 419.00 C571.00,418.45 570.55,418.00 570.00,418.00 C569.45,418.00 569.00,418.45 569.00,419.00 C569.00,419.55 569.45,420.00 570.00,420.00 C570.55,420.00 571.00,419.55 571.00,419.00 ZM 577.00 392.00 C577.00,391.45 576.55,391.00 576.00,391.00 C575.45,391.00 575.00,391.45 575.00,392.00 C575.00,392.55 575.45,393.00 576.00,393.00 C576.55,393.00 577.00,392.55 577.00,392.00 ZM 644.00 389.00 C644.00,388.45 643.55,388.00 643.00,388.00 C642.45,388.00 642.00,388.45 642.00,389.00 C642.00,389.55 642.45,390.00 643.00,390.00 C643.55,390.00 644.00,389.55 644.00,389.00 ZM 576.00 373.94 C576.00,373.42 575.55,373.00 575.00,373.00 C574.45,373.00 574.00,373.70 574.00,374.56 C574.00,375.42 574.45,375.84 575.00,375.50 C575.55,375.16 576.00,374.46 576.00,373.94 ZM 660.81 369.48 C660.07,368.73 657.00,371.80 657.00,373.29 C657.00,373.93 657.99,373.46 659.19,372.25 C660.40,371.04 661.13,369.80 660.81,369.48 ZM 673.00 355.00 C673.00,354.45 672.14,354.00 671.08,354.00 C670.03,354.00 668.45,353.73 667.58,353.39 C666.54,352.99 666.00,353.34 666.00,354.39 C666.00,355.56 666.95,356.00 669.50,356.00 C671.42,356.00 673.00,355.55 673.00,355.00 ZM 295.20 521.39 C294.58,520.28 294.95,518.47 296.40,515.64 C298.32,511.85 298.54,509.36 299.01,486.00 C299.29,471.98 299.48,431.25 299.42,395.50 C299.32,333.71 299.22,330.30 297.41,326.50 C296.36,324.30 295.06,322.19 294.53,321.80 C292.90,320.64 294.97,319.50 298.84,319.45 C300.85,319.42 319.83,319.03 341.00,318.57 C382.47,317.68 387.20,318.03 396.00,322.55 C402.53,325.91 405.85,329.47 409.38,336.91 L 412.50 343.50 L 412.50 382.50 C412.50,421.00 412.47,421.58 410.15,427.68 C407.05,435.87 401.82,442.00 397.95,442.00 C395.80,442.00 395.21,442.38 395.64,443.49 C395.96,444.34 395.52,445.25 394.60,445.60 C393.72,445.94 393.00,447.01 393.00,447.99 C393.00,452.25 409.27,495.83 415.57,508.43 C418.58,514.47 419.70,517.70 419.02,518.38 C418.03,519.37 395.35,520.76 377.76,520.92 L 369.02 521.00 L 369.64 512.25 C370.23,504.04 370.03,502.73 366.53,491.50 C359.09,467.56 354.19,453.74 352.88,452.92 C351.66,452.17 343.42,452.62 341.96,453.53 C341.62,453.73 341.55,466.19 341.80,481.20 C342.17,504.04 342.52,509.07 343.92,512.00 C345.72,515.74 345.62,519.27 343.69,520.79 C343.04,521.31 332.06,522.02 319.30,522.37 C298.53,522.95 296.01,522.85 295.20,521.39 ZM 405.00 510.00 C405.00,509.45 404.55,509.00 404.00,509.00 C403.45,509.00 403.00,509.45 403.00,510.00 C403.00,510.55 403.45,511.00 404.00,511.00 C404.55,511.00 405.00,510.55 405.00,510.00 ZM 377.00 488.06 C377.00,486.88 375.05,485.62 374.33,486.33 C373.62,487.05 374.88,489.00 376.06,489.00 C376.58,489.00 377.00,488.58 377.00,488.06 ZM 326.00 486.00 C326.00,485.45 325.55,485.00 325.00,485.00 C324.45,485.00 324.00,485.45 324.00,486.00 C324.00,486.55 324.45,487.00 325.00,487.00 C325.55,487.00 326.00,486.55 326.00,486.00 ZM 331.50 480.00 C331.84,479.45 331.42,479.00 330.56,479.00 C329.70,479.00 329.00,479.45 329.00,480.00 C329.00,480.55 329.42,481.00 329.94,481.00 C330.46,481.00 331.16,480.55 331.50,480.00 ZM 373.00 479.00 C373.00,478.45 372.55,478.00 372.00,478.00 C371.45,478.00 371.00,478.45 371.00,479.00 C371.00,479.55 371.45,480.00 372.00,480.00 C372.55,480.00 373.00,479.55 373.00,479.00 ZM 392.00 470.00 C392.00,469.45 391.55,469.00 391.00,469.00 C390.45,469.00 390.00,469.45 390.00,470.00 C390.00,470.55 390.45,471.00 391.00,471.00 C391.55,471.00 392.00,470.55 392.00,470.00 ZM 318.00 467.94 C318.00,467.42 317.33,467.00 316.50,467.00 C314.95,467.00 314.51,468.18 315.64,469.31 C316.44,470.11 318.00,469.20 318.00,467.94 ZM 312.00 414.00 C312.00,412.75 310.94,412.75 309.00,414.00 C307.79,414.78 307.93,414.97 309.75,414.98 C310.99,414.99 312.00,414.55 312.00,414.00 ZM 367.68 411.40 C372.45,407.86 373.18,403.69 372.82,382.00 C372.45,360.60 372.11,359.23 366.36,356.50 C364.14,355.45 359.89,355.00 352.10,355.00 L 341.00 355.00 L 341.00 383.83 C341.00,399.69 341.34,413.00 341.75,413.41 C342.16,413.82 347.53,414.01 353.68,413.83 C363.15,413.55 365.29,413.18 367.68,411.40 ZM 334.50 380.00 C334.84,379.45 334.42,379.00 333.56,379.00 C332.70,379.00 332.00,379.45 332.00,380.00 C332.00,380.55 332.42,381.00 332.94,381.00 C333.46,381.00 334.16,380.55 334.50,380.00 ZM 435.46 518.94 C435.10,518.36 435.94,516.17 437.33,514.08 C438.72,511.98 440.36,508.39 440.98,506.08 C441.78,503.11 442.05,477.66 441.93,418.20 C441.74,330.56 441.64,328.58 437.39,323.87 C435.73,322.04 435.73,321.84 437.35,320.22 C438.93,318.64 443.35,318.48 490.06,318.29 L 541.04 318.08 L 540.77 338.21 C540.56,353.77 540.20,358.43 539.18,358.77 C538.46,359.01 537.62,358.27 537.32,357.11 C536.72,354.83 535.00,354.20 535.00,356.25 C535.00,357.22 529.38,357.44 509.48,357.22 L 483.96 356.93 L 484.23 378.22 L 484.50 399.50 L 499.50 399.50 C507.75,399.50 517.20,399.13 520.50,398.68 L 526.50 397.86 L 526.21 419.04 L 525.92 440.22 L 522.71 439.63 C514.45,438.11 499.74,436.93 492.50,437.20 L 484.50 437.50 L 484.23 460.09 L 483.96 482.69 L 499.14 483.34 C523.44,484.39 533.33,484.18 537.35,482.50 C539.32,481.67 541.40,481.00 541.97,481.00 C542.64,481.00 543.00,487.57 543.00,499.89 L 543.00 518.77 L 532.75 519.14 C527.11,519.34 515.53,519.28 507.00,519.00 C498.48,518.72 488.12,518.81 484.00,519.18 C471.55,520.31 436.20,520.13 435.46,518.94 ZM 487.00 514.00 C487.00,513.45 486.55,513.00 486.00,513.00 C485.45,513.00 485.00,513.45 485.00,514.00 C485.00,514.55 485.45,515.00 486.00,515.00 C486.55,515.00 487.00,514.55 487.00,514.00 ZM 512.55 498.91 C512.92,498.31 512.77,497.37 512.21,496.81 C511.08,495.68 507.00,496.64 507.00,498.04 C507.00,498.53 507.67,498.68 508.50,498.36 C509.33,498.05 510.00,498.28 510.00,498.89 C510.00,500.31 511.68,500.33 512.55,498.91 ZM 522.00 497.00 C522.00,496.45 521.55,496.00 521.00,496.00 C520.45,496.00 520.00,496.45 520.00,497.00 C520.00,497.55 520.45,498.00 521.00,498.00 C521.55,498.00 522.00,497.55 522.00,497.00 ZM 479.00 486.00 C479.00,485.45 478.55,485.00 478.00,485.00 C477.45,485.00 477.00,485.45 477.00,486.00 C477.00,486.55 477.45,487.00 478.00,487.00 C478.55,487.00 479.00,486.55 479.00,486.00 ZM 469.00 473.00 C469.00,472.45 468.55,472.00 468.00,472.00 C467.45,472.00 467.00,472.45 467.00,473.00 C467.00,473.55 467.45,474.00 468.00,474.00 C468.55,474.00 469.00,473.55 469.00,473.00 ZM 464.00 438.00 C464.00,437.45 463.55,437.00 463.00,437.00 C462.45,437.00 462.00,437.45 462.00,438.00 C462.00,438.55 462.45,439.00 463.00,439.00 C463.55,439.00 464.00,438.55 464.00,438.00 ZM 507.82 409.67 C508.29,407.25 506.33,407.61 505.70,410.06 C505.35,411.37 505.58,411.97 506.33,411.72 C506.97,411.51 507.65,410.58 507.82,409.67 ZM 473.00 405.80 C473.00,404.18 472.70,403.90 471.89,404.71 C471.28,405.32 471.08,406.31 471.45,406.91 C472.48,408.59 473.00,408.21 473.00,405.80 ZM 472.00 368.00 C472.00,367.45 471.55,367.00 471.00,367.00 C470.45,367.00 470.00,367.45 470.00,368.00 C470.00,368.55 470.45,369.00 471.00,369.00 C471.55,369.00 472.00,368.55 472.00,368.00 ZM 498.00 341.00 C498.00,340.45 497.55,340.00 497.00,340.00 C496.45,340.00 496.00,340.45 496.00,341.00 C496.00,341.55 496.45,342.00 497.00,342.00 C497.55,342.00 498.00,341.55 498.00,341.00 ZM 526.00 336.00 C526.00,335.45 525.55,335.00 525.00,335.00 C524.45,335.00 524.00,335.45 524.00,336.00 C524.00,336.55 524.45,337.00 525.00,337.00 C525.55,337.00 526.00,336.55 526.00,336.00 ZM 472.00 335.00 C472.00,334.45 471.55,334.00 471.00,334.00 C470.45,334.00 470.00,334.45 470.00,335.00 C470.00,335.55 470.45,336.00 471.00,336.00 C471.55,336.00 472.00,335.55 472.00,335.00 ZM 465.00 330.44 C465.00,329.58 464.55,329.16 464.00,329.50 C463.45,329.84 463.00,330.54 463.00,331.06 C463.00,331.58 463.45,332.00 464.00,332.00 C464.55,332.00 465.00,331.30 465.00,330.44 ZM 459.17 327.77 C458.62,327.22 457.64,327.11 456.98,327.51 C456.07,328.07 456.10,328.44 457.10,329.06 C458.80,330.11 460.48,329.08 459.17,327.77 ZM 514.00 327.06 C514.00,326.54 513.55,325.84 513.00,325.50 C512.45,325.16 512.00,325.58 512.00,326.44 C512.00,327.30 512.45,328.00 513.00,328.00 C513.55,328.00 514.00,327.58 514.00,327.06 Z" fill="rgb(230,224,220)"/>
</g>
</svg>